<svg version="1.1" id="Layer_1" xmlns="http://www.w3.org/2000/svg" xmlns:xlink="http://www.w3.org/1999/xlink" x="0px" y="0px"
	 width="100%" viewBox="0 0 720 1024" enable-background="new 0 0 720 1024" xml:space="preserve">
<path fill="#000000" opacity="1.000000" stroke="none" 
	d="
M707.977905,591.993652 
	C707.545166,629.985168 706.007263,667.385498 697.234924,704.060242 
	C685.621582,752.612549 664.281006,796.434692 632.697998,835.158142 
	C597.828796,877.910706 553.745667,908.252197 503.680664,930.451599 
	C488.312134,937.266235 472.259094,941.961914 455.420135,942.019836 
	C425.501801,942.122742 400.381012,930.695984 380.226074,908.486755 
	C375.424530,903.195740 371.586487,897.203857 367.632111,890.669250 
	C363.625092,896.575134 360.284546,902.114319 356.025421,907.019775 
	C336.990631,928.942993 312.943542,940.895508 284.033661,941.968445 
	C263.869324,942.716858 244.831818,936.936462 226.652390,928.526184 
	C163.898483,899.494507 112.022469,857.845703 76.122787,797.891602 
	C54.856335,762.375671 40.701591,724.202454 33.595001,683.362732 
	C28.636753,654.868896 27.267405,626.105469 27.054968,597.322205 
	C26.626980,539.333618 26.652922,481.337891 27.035261,423.348724 
	C27.241545,392.061859 28.528606,360.821289 36.172916,330.167542 
	C49.433483,276.992615 74.789284,230.357193 111.555542,189.942917 
	C147.196274,150.765808 188.823898,119.600845 237.470261,98.213188 
	C255.226776,90.406441 273.452179,84.376755 293.134552,83.520691 
	C321.075409,82.305428 343.783813,92.550537 361.779846,113.711617 
	C363.396667,115.612793 364.884583,117.623207 366.464417,119.556702 
	C366.652374,119.786728 367.043579,119.850685 367.346252,119.992126 
	C368.709320,119.907234 369.255890,118.799217 369.944977,117.893150 
	C392.501190,88.235115 422.566345,78.573830 458.370026,85.390495 
	C485.576935,90.570419 510.029907,102.871208 533.647949,116.760101 
	C580.549866,144.341370 620.174316,180.062210 651.198120,224.843353 
	C678.415588,264.130280 696.308716,307.326843 703.511169,354.814941 
	C706.995056,377.785248 707.734070,400.904266 707.867432,424.022644 
	C708.189392,479.845123 707.976013,535.670715 707.977905,591.993652 
M288.546722,883.345337 
	C275.679901,885.402222 263.601471,882.291504 252.242142,876.781494 
	C226.745407,864.414001 211.360977,843.495361 204.770126,816.434570 
	C202.646866,807.716919 198.637558,804.797241 190.316696,803.060852 
	C144.842529,793.571228 118.272942,756.101624 115.787582,713.835144 
	C115.570068,710.136108 114.425385,708.596985 110.842743,707.836670 
	C93.481964,704.152039 77.638977,697.056152 63.591217,686.106079 
	C63.108944,685.730164 62.494663,685.523560 61.639252,685.081665 
	C61.507221,686.058655 61.326046,686.679749 61.363235,687.287537 
	C61.423786,688.276855 61.570362,689.269714 61.778370,690.240112 
	C67.035500,714.765137 75.067177,738.329590 86.123390,760.861633 
	C109.796158,809.105774 143.959259,848.107666 188.942230,877.551514 
	C210.319321,891.544006 232.336563,904.416626 256.946960,911.921631 
	C294.509888,923.376404 330.999847,907.224243 347.152740,872.493347 
	C353.818146,858.161682 354.490662,842.774841 354.528900,827.499451 
	C354.752960,738.007446 354.650299,648.514465 354.597809,559.021851 
	C354.592163,549.374512 354.758484,539.742554 353.835480,530.079285 
	C349.686493,486.639618 323.267059,462.109467 281.663086,457.249786 
	C265.716309,455.387054 249.696472,456.553925 233.717392,456.028870 
	C227.044281,455.809631 220.380646,455.477081 213.889648,453.865723 
	C188.993958,447.685608 179.260605,431.149261 176.672913,407.221497 
	C175.540710,396.752411 176.093079,386.253296 175.706833,375.773651 
	C175.235214,362.977722 172.459229,359.661194 160.029617,357.207001 
	C151.824005,355.586853 143.797760,353.478912 136.397568,349.450439 
	C124.323997,342.877930 115.814697,333.192413 111.391487,320.145599 
	C109.286331,313.936188 112.253723,307.335266 117.943275,304.529633 
	C123.973160,301.556152 130.771042,303.411377 134.596573,309.184387 
	C135.601364,310.700653 136.373795,312.387573 137.119980,314.055603 
	C140.140503,320.807800 145.195038,325.284882 152.040665,327.994415 
	C156.892532,329.914856 161.968140,330.711639 167.026047,331.743713 
	C181.144348,334.624573 192.816666,340.945526 198.032745,355.417328 
	C200.635330,362.638123 202.145615,370.147522 202.311020,377.876801 
	C202.524628,387.859467 202.017944,397.845978 203.253937,407.820496 
	C204.765701,420.020264 209.880249,426.203583 221.426315,428.431732 
	C225.495956,429.217102 229.621216,429.715210 233.823471,429.733215 
	C248.811417,429.797394 263.800323,429.408569 278.780151,430.650116 
	C296.774384,432.141510 313.864136,436.511505 329.812592,445.114777 
	C338.489960,449.795715 346.010651,456.005798 352.944916,462.916504 
	C354.441071,461.527618 354.368225,460.071533 354.379730,458.850830 
	C354.504150,445.688721 354.487213,432.525330 354.581299,419.362793 
	C354.602386,416.412689 352.579529,415.896332 350.407806,415.345917 
	C339.938507,412.692322 330.313995,408.273438 321.901764,401.429047 
	C303.078522,386.113983 294.236450,365.972656 293.945099,342.027527 
	C293.673401,319.699524 293.813812,297.364777 293.972229,275.034393 
	C294.018219,268.558044 294.663147,262.055817 296.386963,255.771088 
	C303.967804,228.132996 322.008209,210.862213 349.321014,203.132050 
	C353.256927,202.018112 354.829529,200.434845 354.673798,196.321472 
	C354.220459,184.348709 354.869965,172.376877 353.823181,160.377106 
	C351.824158,137.460693 333.520050,116.247147 311.072113,111.195000 
	C294.765503,107.525024 279.216949,110.474564 264.090027,116.181953 
	C209.956970,136.606354 164.394257,169.420837 126.667595,213.055481 
	C90.363190,255.045105 66.895203,303.224335 57.671001,358.256714 
	C54.312248,378.295349 58.658783,395.797272 70.892746,411.739746 
	C76.531006,419.087158 83.604790,424.916443 90.355637,431.089935 
	C100.004425,439.913544 106.865807,450.231323 108.494415,463.490173 
	C110.082100,476.415833 110.348244,489.414856 109.717033,502.388885 
	C109.438820,508.107635 109.731651,513.730164 110.493576,519.315125 
	C111.841309,529.194031 115.318596,536.458252 128.098526,536.028870 
	C129.080811,535.995911 130.088196,536.226685 131.060013,536.442566 
	C137.829285,537.945801 141.754303,543.291199 141.303360,550.348572 
	C140.912659,556.462952 136.113129,561.722534 129.700089,562.085388 
	C117.809631,562.758179 106.892616,560.006897 97.913628,551.583496 
	C87.726341,542.026611 84.345596,529.590942 83.784256,516.343079 
	C83.234421,503.366974 83.749603,490.348999 83.570557,477.352509 
	C83.476120,470.497131 82.853981,463.558929 78.896721,457.682251 
	C72.525444,448.220673 62.452675,442.535675 54.589169,434.281250 
	C54.030075,442.175934 53.894577,449.799316 54.054981,457.416473 
	C54.577320,482.220978 52.249905,507.123962 55.450687,531.815308 
	C57.755440,549.594543 65.558128,564.987427 80.405602,575.798584 
	C103.814507,592.843689 129.571030,594.415894 155.898499,584.657776 
	C174.156204,577.890747 187.017410,564.971558 191.507370,545.180481 
	C193.487564,536.452087 199.251923,532.229980 207.202408,533.861328 
	C214.331436,535.324219 218.578018,541.933228 217.113708,549.892212 
	C213.920197,567.250000 205.402130,581.620422 192.108017,593.154114 
	C176.887238,606.359375 158.957336,613.281067 139.126587,615.643127 
	C110.547012,619.047363 84.534019,612.790649 61.668434,594.876831 
	C59.370419,593.076477 57.221416,591.085938 54.174183,588.472656 
	C54.174183,596.013855 54.059662,602.451111 54.193130,608.883240 
	C54.949680,645.343445 77.311966,673.041931 112.757538,681.513062 
	C119.257729,683.066528 119.356812,683.098083 121.400185,676.670410 
	C125.700623,663.142761 132.854431,651.182983 141.449158,640.034424 
	C145.529846,634.741272 152.218323,633.187805 158.029816,635.803955 
	C163.393005,638.218323 166.207397,643.924988 165.262650,650.349854 
	C164.802170,653.481323 162.852463,655.762756 161.055359,658.165588 
	C146.823151,677.195496 138.903900,698.113708 143.386658,722.169128 
	C147.445068,743.947510 158.404861,761.026123 178.763550,771.362000 
	C189.891663,777.011536 201.765579,779.203857 213.968613,779.594238 
	C227.953995,780.041626 241.964478,779.637573 255.960556,779.841980 
	C264.507385,779.966675 270.442230,785.804443 270.257416,793.365906 
	C270.074188,800.862610 264.300659,806.084167 255.886627,806.220764 
	C250.055222,806.315491 244.221222,806.263489 238.388397,806.254089 
	C228.353912,806.237976 228.181396,806.293457 231.699234,815.919373 
	C239.180878,836.391724 252.463089,851.095886 274.120941,856.776794 
	C287.771210,860.357300 295.836548,854.296265 297.779419,840.233032 
	C299.798798,825.616028 300.058929,811.067871 297.623199,796.498474 
	C294.098602,775.415283 283.781952,759.955994 262.226166,753.842651 
	C257.088776,752.385620 251.867767,751.486206 246.505249,751.259033 
	C235.356216,750.786804 224.185913,751.600830 213.043900,750.364014 
	C191.964630,748.024170 177.574600,734.747009 174.410400,714.012756 
	C171.829910,697.103638 178.032837,682.467651 187.514038,669.137329 
	C197.060349,655.715393 209.434830,645.506042 224.899734,639.303589 
	C239.739868,633.351685 247.681366,622.650513 247.710678,606.329224 
	C247.724594,598.574463 253.734207,592.720520 260.906616,592.886841 
	C268.384583,593.060242 274.353302,599.113525 274.018677,607.066284 
	C273.411499,621.495361 269.871765,635.014465 260.215118,646.350952 
	C253.559204,654.164673 245.118774,659.289429 235.782562,663.223572 
	C219.800262,669.958252 208.242462,681.171753 202.240326,697.587830 
	C196.351425,713.694214 203.672897,724.160522 220.831848,724.775879 
	C231.480408,725.157776 242.122253,724.762512 252.790665,725.520813 
	C288.026764,728.025330 314.722656,751.001099 322.241760,785.663696 
	C326.312408,804.429077 326.747803,823.252930 324.145386,842.222656 
	C320.944580,865.554077 310.240662,878.243408 288.546722,883.345337 
M611.423279,216.066803 
	C583.267334,183.223724 550.521545,155.922852 512.485779,135.254181 
	C490.670715,123.399834 468.550751,112.281372 443.115417,109.780815 
	C414.832001,107.000275 387.328522,126.838310 382.246674,154.749191 
	C379.540405,169.612747 381.550903,184.691635 380.723511,199.650253 
	C380.580048,202.244217 382.567932,202.334976 384.397644,202.765060 
	C417.790314,210.614243 440.791840,239.164536 441.131470,273.587433 
	C441.364929,297.250916 441.359161,320.920410 441.100555,344.583282 
	C440.990875,354.622070 438.976532,364.452820 434.769440,373.673523 
	C424.778107,395.571594 407.844482,409.220825 384.695709,415.239807 
	C381.508301,416.068542 380.379333,417.275574 380.671600,420.695312 
	C381.110138,425.826447 380.775604,431.019196 380.892517,436.182983 
	C381.552277,465.329956 379.492767,494.492859 381.264343,523.627502 
	C382.735443,547.820312 398.224152,578.157043 434.517120,582.518982 
	C447.718109,584.105591 458.482880,578.653015 461.979401,567.814453 
	C463.258972,563.848083 463.627502,559.691711 463.700256,555.498718 
	C463.890747,544.518921 462.919830,533.489319 464.735382,522.574036 
	C466.962067,509.187164 471.324249,496.953033 484.259064,490.025970 
	C493.606415,485.020081 503.849243,484.014099 514.258911,483.658813 
	C527.165833,483.218353 539.892700,481.469543 551.327881,474.934540 
	C574.985413,461.414642 585.550720,439.968567 587.625366,413.637054 
	C588.276367,405.374664 593.645203,399.643677 601.121582,399.822113 
	C608.523804,399.998749 613.998657,405.999542 614.143127,414.183746 
	C614.237671,419.540710 613.364380,424.807343 612.285400,430.023712 
	C605.342590,463.589386 587.142944,488.343048 555.247864,502.105042 
	C540.624878,508.414490 525.018677,509.810547 509.299316,510.264832 
	C496.931458,510.622284 493.398865,513.658997 491.022125,525.547058 
	C490.459045,528.363464 490.351288,531.152161 490.266174,533.977783 
	C489.970551,543.794922 490.382019,553.605835 489.443024,563.436584 
	C486.651855,592.658508 466.868774,609.789001 437.113373,608.907410 
	C417.492981,608.326172 399.591553,601.705078 384.928680,587.910583 
	C383.987000,587.024658 383.139465,585.864014 381.210388,586.156677 
	C381.210388,628.939453 381.210388,671.754883 381.210388,714.570251 
	C381.713287,714.798401 382.216217,715.026550 382.719116,715.254639 
	C383.835876,713.810669 384.798767,712.208984 386.092621,710.946533 
	C402.880035,694.565979 422.849152,685.400574 446.445618,684.740173 
	C452.914673,684.559082 457.464020,687.674377 459.352905,692.982971 
	C462.599304,702.106873 456.955566,710.401123 446.791229,711.032288 
	C440.099396,711.447693 433.558319,712.225281 427.247894,714.671448 
	C406.321655,722.783081 394.359314,738.916992 387.489502,759.395264 
	C379.603333,782.903137 380.099213,807.293884 380.779083,831.620483 
	C381.066742,841.913513 381.217377,852.311279 384.143005,862.318359 
	C396.409760,904.276917 439.722748,925.886047 481.547089,911.042603 
	C500.494537,904.318176 518.202759,894.985840 535.234680,884.524231 
	C607.273376,840.275391 652.780762,776.703979 672.344482,694.526367 
	C673.043518,691.590027 674.395935,688.558960 673.377991,685.225159 
	C672.689209,685.362000 672.093933,685.301758 671.772095,685.569763 
	C657.608337,697.369141 641.161743,704.245178 623.270813,707.883179 
	C619.772949,708.594421 619.392212,710.576599 619.277710,713.568176 
	C618.311707,738.800293 608.942139,760.533203 591.233765,778.470764 
	C577.063293,792.824646 559.409363,800.702454 539.774536,804.225525 
	C534.885986,805.102661 532.876953,807.013794 531.652527,812.148560 
	C523.016968,848.362671 502.490295,873.748596 464.942688,882.712708 
	C438.473633,889.031921 415.553650,873.087708 411.633362,846.119385 
	C409.004333,828.033997 408.976776,810.039185 411.655762,791.935852 
	C416.704346,757.819946 438.644012,733.844849 471.419159,727.010071 
	C485.600098,724.052856 499.964081,725.144714 514.261780,724.716614 
	C531.058289,724.213684 538.335632,713.913391 533.171326,697.882385 
	C532.662354,696.302612 532.021057,694.751587 531.296875,693.257080 
	C524.549133,679.332458 513.591309,669.826782 500.023315,662.788025 
	C484.961792,654.974426 482.826782,637.136047 496.072510,626.588928 
	C512.008667,613.899597 518.111877,597.183289 518.753296,577.617737 
	C519.076355,567.761353 517.896790,557.982483 517.689880,548.160217 
	C517.515869,539.903687 521.511230,534.691956 528.468750,533.739258 
	C536.242981,532.674744 541.436523,536.522034 543.462524,544.888245 
	C547.466248,561.421448 557.150085,573.470764 572.077820,581.495728 
	C587.667969,589.876953 604.401978,591.680603 621.538208,589.375061 
	C639.902588,586.904236 655.405273,578.694519 666.836548,563.695190 
	C675.942383,551.747131 680.290771,537.957214 680.643372,523.197266 
	C681.204529,499.711304 680.956604,476.205933 681.044312,452.708771 
	C681.067566,446.482758 681.910034,440.236389 680.716980,433.673248 
	C674.840332,439.026520 669.351074,444.321899 663.544617,449.243042 
	C655.935303,455.692078 652.441650,463.725189 651.900574,473.664398 
	C651.256226,485.499603 651.416382,497.319580 651.460083,509.143524 
	C651.491089,517.533569 650.710083,525.738953 648.247375,533.782898 
	C642.602539,552.221069 625.400574,563.880127 606.140076,562.245544 
	C599.013367,561.640747 593.933716,556.494629 593.686096,549.628723 
	C593.438782,542.768799 598.134277,537.166992 605.126099,536.095154 
	C606.765808,535.843750 608.447937,535.854309 610.112183,535.780151 
	C616.702271,535.486450 621.015320,532.196594 623.080322,525.946716 
	C624.980530,520.195496 625.866760,514.219116 625.573303,508.239380 
	C624.968079,495.906250 625.270569,483.586182 625.771179,471.281769 
	C626.305481,458.146851 629.779175,445.962006 639.608826,436.429504 
	C645.229736,430.978485 650.989380,425.668823 656.549622,420.157379 
	C671.423645,405.413757 680.474548,388.135742 678.452209,366.582672 
	C676.781921,348.782684 672.440002,331.495636 666.783875,314.567383 
	C654.712402,278.438873 636.208557,245.884506 611.423279,216.066803 
M540.548279,776.997803 
	C552.337036,774.337219 563.058838,769.316040 571.566040,760.733276 
	C591.783020,740.336548 597.050171,715.902222 589.806335,688.472046 
	C586.738770,676.856140 580.890137,666.644653 573.600281,657.183899 
	C570.660522,653.368652 568.645935,649.182190 570.245117,644.205933 
	C571.770203,639.460266 574.782532,635.944946 579.815308,634.940735 
	C585.276672,633.851013 589.987610,635.343201 593.586243,639.905396 
	C602.755981,651.530151 609.746887,664.313721 614.368591,678.387085 
	C615.075073,680.538269 615.196228,682.931030 618.830566,682.198608 
	C632.504150,679.442810 644.820251,673.816528 655.511536,664.931946 
	C670.941956,652.109009 678.835083,635.204834 680.475098,615.478577 
	C681.203918,606.712097 680.598145,597.834717 680.598145,588.454041 
	C661.477051,606.612305 639.127380,615.603149 613.462585,616.513306 
	C587.824097,617.422546 564.560852,610.597229 543.745361,594.132690 
	C540.445923,613.488953 532.211609,629.450989 518.671509,642.318359 
	C519.397034,643.191650 519.561279,643.507690 519.820679,643.682373 
	C521.478516,644.798767 523.197998,645.827026 524.822998,646.988159 
	C543.399231,660.262573 556.939026,677.133179 560.681946,700.201233 
	C563.345825,716.618469 558.841980,731.065369 545.177490,741.492859 
	C535.828186,748.627258 524.748230,750.857666 513.186523,751.117615 
	C502.210968,751.364319 491.213898,750.518250 480.267914,752.234497 
	C459.665039,755.464844 445.816559,766.662781 439.909607,786.772705 
	C434.361511,805.661133 434.580383,824.937561 438.139191,844.110962 
	C440.138733,854.883667 448.128967,859.585022 458.960541,857.324280 
	C482.105713,852.493530 499.278107,833.071167 505.312714,809.763062 
	C506.219635,806.260132 503.892395,806.284729 501.617188,806.277283 
	C494.286499,806.253174 486.955231,806.316956 479.625092,806.247986 
	C470.958771,806.166382 464.915527,800.887146 464.743042,793.372131 
	C464.563293,785.541016 470.467743,779.949768 479.506927,779.828735 
	C492.000397,779.661438 504.497620,779.709717 516.992859,779.763916 
	C524.687195,779.797241 532.258423,778.910950 540.548279,776.997803 
M372.326019,227.058228 
	C368.996765,227.063614 365.657990,226.906830 362.339783,227.100784 
	C341.189667,228.337128 321.759735,246.687927 320.358704,267.814972 
	C318.561768,294.911774 318.521606,322.091064 320.370850,349.183746 
	C321.941315,372.192535 343.139252,391.503510 365.808685,391.704559 
	C390.855530,391.926666 412.656647,374.130249 414.532684,350.679810 
	C416.751465,322.944672 416.621002,295.092773 414.552612,267.350372 
	C412.988434,246.370712 394.176697,228.681396 372.326019,227.058228 
z"/>
<path fill="#000000" opacity="1.000000" stroke="none" 
	d="
M281.505920,149.016449 
	C287.262543,152.284393 289.517517,157.002731 288.486816,163.045731 
	C287.436523,169.203583 283.421356,172.577148 277.354248,173.570496 
	C272.617767,174.345993 269.037750,176.911377 266.380463,180.756912 
	C255.576004,196.392578 240.565491,205.866760 222.600922,211.319168 
	C206.644485,216.162079 194.158875,225.026840 189.124298,241.954025 
	C183.728348,260.096252 189.679047,277.315338 205.293762,287.944336 
	C211.211685,291.972656 217.405182,295.593689 223.416229,299.488129 
	C242.211975,311.665588 251.179214,330.019470 255.117706,351.198792 
	C257.528290,364.161957 257.438416,377.375916 257.137177,390.539124 
	C257.099457,392.187256 256.827881,393.859619 256.436127,395.464996 
	C254.704559,402.560974 248.846588,406.913208 242.267532,406.087128 
	C235.408752,405.225922 230.850952,399.994354 230.680832,392.650421 
	C230.434097,382.000458 230.941483,371.356812 229.857407,360.697174 
	C228.042084,342.846893 220.680435,328.580994 205.035553,319.063690 
	C199.202972,315.515564 193.301331,312.017944 187.810486,307.981323 
	C149.232178,279.620239 152.364487,220.078430 193.575729,195.579849 
	C200.654465,191.371765 208.195999,188.277893 215.980881,185.857803 
	C227.662491,182.226334 237.487625,176.096634 244.626785,166.055161 
	C251.180389,156.837341 259.769043,150.719223 270.863403,148.244690 
	C274.344177,147.468323 277.794434,147.315033 281.505920,149.016449 
z"/>
<path fill="#000000" opacity="1.000000" stroke="none" 
	d="
M314.877197,511.226196 
	C324.082306,526.621765 326.252777,543.407654 326.971954,560.488647 
	C327.280029,567.805725 327.314178,575.168030 326.881500,582.474792 
	C326.223602,593.585510 316.298950,599.376587 307.116272,594.296387 
	C302.621246,591.809692 300.656403,587.909180 300.615936,582.767273 
	C300.530792,571.950745 301.108765,561.128723 299.843719,550.318298 
	C299.260590,545.335022 298.543030,540.408447 297.095062,535.636719 
	C292.324982,519.916626 282.024445,512.039490 265.693726,511.103333 
	C251.544327,510.292267 237.374115,510.705566 223.227966,510.195251 
	C202.537552,509.448883 182.339584,506.264740 164.750717,494.274536 
	C139.114944,476.798798 125.040512,452.294159 121.663704,421.554657 
	C121.249397,417.783234 120.344040,414.059143 121.545097,410.179260 
	C123.600365,403.539886 128.991806,399.307251 135.095688,399.952301 
	C141.792755,400.660065 146.719696,405.575867 147.271988,412.452667 
	C148.130722,423.144562 149.897522,433.599030 154.620300,443.353363 
	C165.999710,466.856232 184.574783,480.065826 210.653290,482.759430 
	C228.753082,484.628937 246.934219,483.360504 265.063324,484.578186 
	C285.710663,485.964996 302.870850,493.219788 314.877197,511.226196 
z"/>
<path fill="#000000" opacity="1.000000" stroke="none" 
	d="
M470.691833,461.676208 
	C450.248413,470.712616 439.758881,486.697540 436.342682,507.879791 
	C435.680450,511.986115 435.307129,516.111877 435.259186,520.297729 
	C435.181641,527.068115 430.424866,532.526550 424.379639,533.286438 
	C416.814575,534.237366 411.236786,530.621277 409.463043,523.178772 
	C407.717407,515.854187 409.423615,508.554382 410.777954,501.425964 
	C416.212494,472.821899 430.992584,450.962555 457.973083,438.542267 
	C471.803070,432.175690 486.625671,429.964478 501.747681,429.741455 
	C506.780670,429.667175 511.709656,429.138458 516.545288,427.801361 
	C524.100708,425.712250 528.921021,420.917816 530.759460,413.225403 
	C532.079407,407.702637 532.684326,402.127167 532.731384,396.428650 
	C532.820435,385.634308 532.289307,374.869446 534.445068,364.087341 
	C538.209717,345.259033 550.064514,335.423798 568.065613,331.741241 
	C572.633057,330.806915 577.225647,330.074493 581.661255,328.535583 
	C589.695007,325.748291 595.285339,320.437134 598.712341,312.713715 
	C602.391907,304.421234 609.163330,301.157501 616.223328,304.210663 
	C623.546570,307.377686 626.158081,314.813599 622.645691,323.100616 
	C614.666016,341.927704 599.581726,351.743530 580.319519,356.159637 
	C578.536621,356.568390 576.717651,356.816711 574.924744,357.184967 
	C562.873779,359.660004 559.978699,363.079590 559.316406,375.431305 
	C558.754517,385.910889 559.662659,396.411713 558.508606,406.894562 
	C554.975525,438.985626 538.170593,454.847260 505.839966,455.900513 
	C493.958008,456.287598 482.217224,456.993652 470.691833,461.676208 
z"/>
<path fill="#000000" opacity="1.000000" stroke="none" 
	d="
M482.707092,339.862366 
	C488.701080,319.643646 500.842499,304.931122 518.878296,294.837402 
	C524.668274,291.597046 530.537292,288.314941 535.435974,283.719788 
	C555.396301,264.996429 550.629578,230.489212 526.284180,217.202164 
	C521.886230,214.801880 517.296570,212.796890 512.507202,211.373444 
	C494.516296,206.026398 479.583069,196.324997 468.757629,180.799377 
	C465.896698,176.696335 462.013397,174.620422 457.310944,173.461395 
	C449.314941,171.490601 444.985260,165.257645 446.467102,158.189590 
	C448.000183,150.876907 454.814026,146.437805 462.805969,148.011536 
	C472.014709,149.824890 480.614960,153.468887 486.168152,161.292374 
	C495.881317,174.976486 508.928192,183.068802 524.756775,188.033890 
	C546.644836,194.899689 562.233521,208.958984 570.232727,230.944687 
	C581.412292,261.671753 570.273804,294.171051 542.436829,311.420441 
	C537.908325,314.226532 533.422363,317.101166 528.888733,319.898804 
	C513.527832,329.377869 507.111603,343.948792 505.247711,361.171051 
	C504.133301,371.468201 504.432953,381.792755 504.401672,392.114563 
	C504.378143,399.881073 499.492432,405.593842 492.491974,406.146088 
	C485.376556,406.707336 478.643707,401.501770 478.267365,393.700470 
	C477.401031,375.740631 477.196167,357.739532 482.707092,339.862366 
z"/>
<path fill="#000000" opacity="1.000000" stroke="none" 
	d="
M335.675720,258.919617 
	C340.558746,249.218658 347.711029,242.860916 357.731812,240.091537 
	C359.905731,242.136246 359.262115,244.255371 359.268921,246.154648 
	C359.323303,261.319000 359.236877,276.484039 359.329895,291.648010 
	C359.367767,297.822144 363.221771,301.703583 368.386810,301.182648 
	C372.907654,300.726624 375.712463,297.428864 375.736328,292.106415 
	C375.804352,276.942108 375.741455,261.777283 375.784515,246.612823 
	C375.790070,244.660583 375.327728,242.604355 376.818604,240.275772 
	C386.575745,242.003815 393.303345,248.019897 398.124054,256.313477 
	C401.421021,261.985535 403.040436,268.327087 403.053833,274.951294 
	C403.098907,297.281464 403.350952,319.615814 403.004456,341.940491 
	C402.777496,356.563171 397.016022,368.513641 383.373352,375.448486 
	C361.424744,386.605499 334.752594,372.296295 332.808411,347.732635 
	C330.862091,323.141785 332.056091,298.446655 332.270630,273.797302 
	C332.314117,268.802948 333.316315,263.861877 335.675720,258.919617 
z"/>
</svg>