<svg xmlns="http://www.w3.org/2000/svg" viewBox="373 78 280 280">
<path fill="#0d8b8a" d="M606.956055,261.569397 C602.098511,293.831482 585.530396,317.602753 557.487366,333.117188 C516.087830,356.020905 461.493347,342.294647 435.242798,302.958435 C424.061615,286.203552 418.686615,267.901001 418.740082,247.864716 C418.788116,229.869232 418.764679,211.873566 418.791656,193.878006 C418.863983,145.596069 450.632996,107.658875 498.161255,99.083748 C548.203857,90.054970 598.743286,126.408348 606.370300,176.780853 C607.300659,182.925430 607.405273,189.049622 607.331665,195.197861 C607.068604,217.174942 608.105957,239.157333 606.956055,261.569397 M470.941345,129.275604 C474.416992,128.466278 477.169861,127.062477 479.291046,123.714500 C481.981384,119.468224 486.507202,117.976105 491.571503,118.985489 C496.158875,119.899818 498.762573,122.981682 499.971863,127.293755 C500.600403,129.535004 500.354187,131.815826 497.796936,132.704254 C495.415039,133.531754 494.042236,132.054718 493.359772,129.892334 C492.527435,127.255173 491.204620,125.298523 488.007202,125.992973 C485.098114,126.624802 483.867920,128.858658 483.728241,131.479813 C483.463074,136.456818 483.460693,141.452698 483.508057,146.439240 C483.528870,148.631851 484.167450,150.761261 485.876617,152.309631 C487.715088,153.975189 489.587555,155.847519 487.307800,158.137726 C484.887634,160.568939 482.569244,158.685226 480.902313,156.801422 C478.805084,154.431412 477.169495,151.760132 473.366638,151.909302 C472.029358,151.961746 471.023102,150.694748 470.873199,149.193802 C470.722809,147.688232 471.550140,146.745087 472.786072,145.980972 C477.246124,143.223541 477.865173,140.745331 475.433533,135.724640 C468.308502,137.055618 464.432617,140.346390 463.428833,145.917130 C462.369812,151.794357 464.983490,156.331039 471.509918,159.924133 C472.822876,160.646973 474.197601,161.268036 475.463440,162.063965 C479.196106,164.410980 481.719208,167.808762 482.119904,172.145874 C482.562592,176.937347 482.317261,181.797668 482.267059,186.626923 C482.245422,188.709015 481.217865,190.201324 478.947205,190.179611 C476.615051,190.157303 475.840912,188.501236 475.770020,186.485092 C475.676361,183.822357 475.540741,181.141937 475.735565,178.492065 C476.200012,172.174179 473.615417,167.962967 467.666809,165.676132 C463.661743,164.136459 460.595337,161.454391 458.468475,157.624390 C456.114105,153.384674 453.023590,153.267212 450.137268,157.115311 C446.170624,162.403610 449.365356,168.795624 456.426605,169.698959 C464.827179,170.773621 467.284515,173.564651 467.340210,182.079163 C467.356537,184.577881 467.205841,187.095520 467.458313,189.571182 C467.992371,194.808594 470.305939,196.758743 475.609161,197.065689 C481.169067,197.387482 485.863770,196.362381 488.276459,190.500381 C489.082275,188.542572 490.850983,187.145752 493.109650,188.378372 C495.249268,189.546051 495.060913,191.569473 494.351654,193.655930 C493.944611,194.853287 492.708405,195.859207 493.618225,198.030869 C499.190155,198.611572 503.932770,202.282516 509.684357,205.747025 C509.684357,200.010223 509.619965,195.363342 509.709961,190.719452 C509.759277,188.174988 509.031433,184.898102 513.154785,184.822861 C517.173462,184.749481 516.909912,187.899124 516.906128,190.532242 C516.891724,200.526718 516.928467,210.525238 516.656067,220.514343 C516.344238,231.948776 523.703857,239.916061 534.760315,239.734879 C537.130615,239.696045 539.613647,239.938049 539.664673,236.390778 C539.713623,232.985504 537.298889,233.477768 535.164673,233.291168 C529.154846,232.765747 526.047119,229.342133 525.600891,223.225800 C524.911011,213.771469 526.201965,205.162750 535.405823,199.938278 C534.142822,197.658356 532.998962,195.995651 532.268250,194.167801 C531.443787,192.105591 531.013062,189.686569 533.413391,188.408279 C536.080017,186.988159 537.450012,189.113708 538.333130,191.137283 C541.345703,198.040100 548.922302,197.948914 554.380859,196.497467 C560.022644,194.997314 558.499329,189.696869 558.730347,185.526077 C558.757935,185.028061 558.722290,184.526672 558.719727,184.026825 C558.666931,173.555573 560.426208,171.504974 570.895874,169.634628 C574.281982,169.029724 576.782349,167.173843 577.566956,163.720963 C578.387024,160.111832 577.092285,157.142731 574.033997,155.048111 C571.738953,153.476288 569.801331,153.345520 568.540894,156.444473 C566.602966,161.208923 562.926086,164.263580 558.202026,165.994614 C552.883484,167.943481 550.857544,171.829086 550.910889,177.227112 C550.943604,180.549301 550.907166,183.885025 550.632141,187.192261 C550.481995,188.997467 549.266479,190.235901 547.268127,190.225311 C545.259827,190.214661 544.362488,188.902771 543.895691,187.142639 C540.641785,174.872910 544.799622,165.236420 555.982788,159.145401 C561.738647,156.010422 564.256531,151.121002 562.927124,145.660370 C561.448242,139.586273 557.006165,136.229675 549.606323,136.067551 C550.162659,139.825455 546.446899,144.804092 553.760803,146.018677 C555.173767,146.253326 555.946228,147.588486 555.771851,149.079010 C555.577942,150.736221 554.491089,152.091385 552.879822,152.024734 C549.557495,151.887329 547.733032,153.637329 546.143127,156.187714 C545.250183,157.620117 543.731506,158.496628 542.107666,158.990204 C540.689331,159.421326 539.469849,158.908127 538.578430,157.744019 C537.637207,156.514771 537.648376,155.175308 538.727905,154.113678 C545.999084,146.962845 541.897400,138.139160 542.145508,130.016144 C542.217590,127.657372 539.985352,125.814682 537.317688,125.795387 C535.027710,125.778839 533.759888,127.293839 533.282166,129.517258 C532.759460,131.950394 531.476257,133.650238 528.745239,132.678696 C526.260376,131.794739 525.879272,129.706955 526.472046,127.322845 C527.584290,122.849770 530.388123,119.893753 534.832703,118.989433 C539.810059,117.976707 544.300354,119.537529 547.118103,123.784119 C549.131714,126.818871 551.574402,128.254883 554.978699,129.204819 C561.739136,131.091248 566.956421,135.174744 569.140137,142.104050 C570.097961,145.143372 571.776062,146.604584 574.707886,147.681580 C582.976074,150.718826 586.684265,158.040802 584.149048,166.441101 C583.282837,169.311249 584.035522,170.918564 585.818420,173.023666 C590.684692,178.769379 589.833679,187.156418 583.412109,189.549911 C577.747559,191.661255 577.627869,195.154633 576.733093,199.955322 C575.421570,206.991699 573.429749,213.647888 576.132751,220.837311 C577.045532,223.265228 576.318848,226.632675 580.101074,226.490799 C583.663025,226.357178 584.569214,223.478180 584.627930,220.409363 C584.704407,216.411804 584.924683,212.391281 584.608521,208.418427 C584.209961,203.410553 586.046692,199.940414 590.075745,196.961792 C596.760559,192.019745 599.883362,185.029129 598.577148,176.827621 C593.522827,145.090805 569.874023,117.621635 536.545654,108.611481 C526.007690,105.762604 517.704895,112.575546 517.097839,123.502220 C516.913147,126.826477 517.048340,130.168594 516.860229,133.492538 C516.728638,135.817566 515.860840,137.962296 513.056580,137.768265 C510.678131,137.603699 509.769165,135.768219 509.736267,133.517868 C509.702179,131.185638 509.703217,128.852921 509.683746,126.520462 C509.563904,112.154533 499.920959,104.728554 486.423370,109.497925 C455.718445,120.347519 436.089325,141.546494 428.323975,173.434128 C425.876678,183.483810 428.743561,191.533401 437.006744,197.555893 C440.927826,200.413727 442.380768,204.008057 442.177399,208.727402 C441.984131,213.212646 442.112701,217.724121 442.352081,222.210617 C442.480225,224.612610 444.043030,226.394669 446.494080,226.432022 C448.994324,226.470108 449.545044,224.441055 449.813995,222.258865 C450.645477,215.513412 454.180420,208.850342 449.865692,201.987122 C449.105164,200.777405 449.524200,198.704117 449.690216,197.059067 C450.044922,193.544022 448.803619,191.680084 445.207306,190.573715 C439.077271,188.687851 436.347473,183.044373 438.002350,177.158127 C438.861053,174.103790 441.345093,172.279694 443.249908,170.119064 C439.565277,157.041977 441.720673,152.240768 453.881622,146.844818 C455.692413,146.041336 456.261017,144.814102 456.771606,143.161850 C458.888184,136.312988 463.331299,131.704178 470.941345,129.275604 M493.296051,322.105865 C482.010925,323.798645 472.685730,317.662567 468.552612,305.844574 C467.751923,303.555115 467.469788,301.087036 464.234161,300.435913 C451.861938,297.946045 445.477783,289.880798 443.775879,277.711914 C443.565186,276.205353 443.625427,274.516266 441.826416,274.038879 C437.387115,272.860779 433.448151,270.420929 428.688446,268.452698 C429.669800,276.013550 432.197327,282.297089 435.329559,288.339386 C445.454376,307.871277 460.353546,322.386078 481.090515,330.163361 C495.727112,335.652679 509.647095,325.638214 509.679291,310.057068 C509.736816,282.234772 509.742218,254.412064 509.647980,226.589935 C509.603760,213.535263 500.776489,204.665131 487.722717,204.317963 C483.227936,204.198410 478.722687,204.433884 474.230072,204.279297 C466.380524,204.009216 461.169678,198.883896 460.724457,191.047989 C460.545135,187.891983 460.682129,184.718765 460.641144,181.553833 C460.618744,179.822281 460.361145,177.907135 458.416473,177.531937 C455.016083,176.875916 451.562561,176.003586 448.053497,176.949112 C446.320068,177.416183 444.970093,178.374557 444.852417,180.313278 C444.736328,182.225708 445.874268,183.779221 447.549469,184.080246 C455.602966,185.527374 456.450684,191.175598 456.391510,197.895889 C456.315918,206.487869 461.366547,211.449051 470.034882,211.759460 C474.694153,211.926315 479.366730,211.712112 484.027008,211.863281 C492.168060,212.127335 497.795135,215.950989 499.836365,222.539642 C501.543091,228.048523 501.312408,233.734802 501.052399,239.392746 C500.949585,241.629883 499.815643,243.271255 497.322235,243.190094 C495.063934,243.116592 494.123505,241.437317 493.989868,239.494293 C493.773102,236.341934 493.853241,233.169952 493.776672,230.007019 C493.580078,221.882919 490.984131,219.367447 482.879730,219.239166 C475.752380,219.126358 468.590485,219.898529 461.585632,217.508469 C458.161835,216.340271 457.467499,218.842072 457.255829,221.746170 C456.668274,229.806198 453.241730,233.421906 446.550476,233.370697 C439.871002,233.319565 435.195221,228.463364 434.834503,221.046997 C434.697113,218.222061 434.435150,215.314560 434.917572,212.565338 C436.172852,205.411423 432.105835,201.713104 426.304413,198.103561 C426.304413,205.542465 426.287384,212.353256 426.307861,219.163925 C426.354523,234.688812 433.313660,241.588943 448.930481,241.622299 C462.133026,241.650497 462.124664,241.648697 464.826477,229.149719 C464.995636,228.367142 465.258911,227.432632 465.809509,226.935638 C467.831451,225.110626 469.859314,225.207123 471.020325,227.820404 C474.751678,236.219101 467.705261,247.565903 458.338593,248.292480 C455.853363,248.485275 453.340759,248.430374 450.844788,248.355225 C446.985321,248.238998 443.495941,248.563950 441.932404,252.990494 C441.411072,254.466461 440.028046,255.379288 438.310242,254.934311 C436.695496,254.516037 435.542053,253.307739 435.792633,251.658829 C436.894958,244.405945 430.179382,245.076767 426.817993,241.370422 C425.441711,253.555206 430.409241,262.432526 439.517975,265.825073 C442.729065,267.021057 444.795044,266.798279 446.182007,263.217285 C447.127808,260.775177 448.745636,258.558014 450.271545,256.386841 C451.550629,254.566895 453.229095,252.836807 455.665314,254.514511 C457.992981,256.117523 457.358765,258.190704 456.033447,260.197601 C455.116455,261.586182 454.134979,262.950745 453.387543,264.429718 C447.157410,276.756683 453.277710,294.928345 470.877960,293.988922 C473.369507,293.855957 475.887054,293.829529 478.370789,294.027374 C481.315094,294.261841 485.737915,293.033661 485.967651,297.455658 C486.213074,302.179321 481.745209,301.044952 478.787170,301.239502 C476.418030,301.395325 474.564941,301.953156 475.754547,304.779144 C477.999969,310.113159 481.769897,314.019012 487.523193,315.440338 C491.147766,316.335754 493.461090,314.592804 493.633667,310.855743 C493.833191,306.535767 493.933105,302.171417 493.548798,297.873535 C492.961121,291.301117 487.926727,286.708771 481.299255,286.182587 C477.649658,285.892853 473.974274,285.823578 470.348663,285.357788 C462.442291,284.342133 458.308105,277.877991 460.448730,270.141937 C462.581818,262.433044 467.805145,257.394257 475.094696,254.976807 C478.948944,253.698639 479.931641,251.850922 479.796783,248.197739 C479.581787,242.375031 479.751831,236.537918 479.770020,230.706924 C479.777679,228.256454 479.989838,225.708588 483.167236,225.609970 C486.330383,225.511795 486.846130,228.110245 486.932281,230.493744 C487.118744,235.652878 487.414490,240.844513 487.038971,245.977020 C486.680420,250.877579 487.984802,253.514664 493.322388,253.649521 C497.812988,253.762924 500.060028,256.618713 500.841217,260.929962 C502.509125,270.134491 498.846985,274.774933 489.348236,275.279755 C487.055542,275.401611 484.616760,275.247406 483.904724,278.795227 C489.148773,280.726562 494.403046,282.808746 497.269531,287.831848 C502.353973,296.741516 502.172272,306.321228 499.795349,315.914032 C499.104767,318.701050 496.683624,320.577393 493.296051,322.105865 M525.671692,302.569580 C525.022400,290.331238 530.346130,282.165375 542.586365,278.924286 C541.569031,276.080780 539.755615,275.579102 537.708923,275.349030 C529.627502,274.440735 523.169067,277.770416 519.939148,284.768097 C514.571899,296.396179 514.588318,308.945435 519.356934,320.614136 C523.740051,331.339325 536.873535,334.591217 549.078125,328.822388 C573.644958,317.210419 589.788391,298.251892 597.252991,272.044586 C597.615417,270.772125 597.580688,269.386597 597.788269,267.545471 C593.923645,270.376831 590.498047,272.438416 586.534058,273.318481 C583.683838,273.951263 582.519958,275.454987 582.247009,278.474640 C581.254028,289.458618 574.986755,297.192780 564.377014,299.965973 C560.420776,301.000061 558.648926,302.960236 557.437866,306.642761 C554.403137,315.871246 547.858459,321.274658 538.177673,322.499756 C531.251221,323.376343 526.202393,319.042572 525.743286,312.034149 C525.558533,309.213287 525.685791,306.372009 525.671692,302.569580 M592.453308,204.327667 C591.086487,205.857819 591.348267,207.746475 591.336060,209.558182 C591.306885,213.886795 591.441528,218.220169 591.284058,222.543381 C591.059692,228.701797 586.918945,232.954086 581.036682,233.330917 C574.494324,233.750031 570.792786,230.794998 569.604736,224.198425 C569.427734,223.215576 569.213745,222.234512 569.117737,221.242859 C568.776550,217.720505 566.997192,216.720520 563.641479,217.749451 C559.970581,218.875031 556.176208,219.463058 552.312256,219.209427 C548.389709,218.951965 546.930176,220.927521 547.023254,224.630554 C547.115173,228.290588 547.074463,231.956085 547.007080,235.617615 C546.849854,244.164108 543.504028,247.258133 534.961792,247.137360 C528.483093,247.045746 522.801697,244.605011 517.208191,240.761673 C517.208191,252.597183 517.208191,263.567719 517.208191,274.993073 C522.903687,272.350433 526.398682,269.558472 525.825195,263.107635 C525.307556,257.285248 528.606750,254.268402 534.468323,253.786957 C536.619812,253.610229 538.794678,253.729736 540.958374,253.689011 C549.135742,253.535126 554.272461,248.548431 554.635498,240.317322 C554.760193,237.491974 554.639526,234.656693 554.698608,231.827347 C554.753662,229.188080 554.353638,225.932312 558.212402,225.866760 C562.073059,225.801193 561.197754,229.106094 561.327393,231.442368 C561.709595,238.329239 564.784424,241.452957 571.585632,241.630920 C574.580627,241.709290 577.579041,241.664169 580.575867,241.669968 C589.102722,241.686478 595.995422,237.345718 598.495605,229.266876 C601.529724,219.462631 599.558228,209.373322 599.840698,198.327209 C596.852539,200.703873 594.917419,202.242966 592.453308,204.327667 M552.197815,286.001923 C549.372437,286.109619 546.523315,286.024506 543.726868,286.367645 C538.817993,286.969910 535.314941,289.887146 533.773682,294.400055 C531.926208,299.809448 532.006287,305.554321 532.755981,311.198303 C533.114685,313.898865 534.573120,315.781525 537.749512,315.672760 C543.802734,315.465515 550.817078,307.940704 550.635986,301.138611 C548.528687,301.138611 546.395935,301.220245 544.272400,301.115997 C542.085205,301.008667 540.220276,300.079742 540.094910,297.677216 C539.957153,295.036560 542.142639,294.375824 544.171265,294.258972 C548.817871,293.991455 553.482483,294.053436 558.133606,293.843292 C566.318115,293.473480 572.535583,288.368134 574.759460,280.485413 C576.824768,273.165039 574.780212,266.688995 570.782715,260.641357 C569.367493,258.500397 568.270752,256.369934 570.730042,254.537918 C573.386780,252.558807 575.077271,254.757172 576.400085,256.672943 C577.903442,258.850311 579.373108,261.132629 580.348816,263.572693 C581.670837,266.878662 583.648926,267.156738 586.647278,266.035400 C596.245483,262.445831 601.497681,252.718994 599.089478,241.867752 C595.710388,245.128006 589.036987,244.940994 590.657043,252.257782 C590.924561,253.466110 589.589355,254.677704 588.151733,254.995316 C586.416626,255.378632 585.045227,254.475922 584.561401,252.986374 C583.093872,248.468307 579.604919,248.228622 575.746155,248.327667 C570.951660,248.450760 566.127563,248.648743 561.150452,246.307968 C559.838684,250.041183 557.641479,252.909958 555.328003,256.095062 C557.191772,257.748230 559.066895,259.115692 560.578247,260.808014 C564.995667,265.754272 567.635681,271.442535 565.718811,278.160400 C563.949341,284.361420 558.652832,285.531464 552.197815,286.001923 M539.262390,225.606125 C540.998779,214.335541 543.462708,212.162857 554.812561,211.892929 C555.311768,211.881058 555.811340,211.872818 556.309998,211.848633 C565.166504,211.419037 569.732849,206.874130 569.758057,197.958221 C569.777039,191.253632 570.884521,185.623871 578.814697,184.153290 C580.536804,183.833969 581.676025,182.357162 581.518982,180.430206 C581.339905,178.231918 579.771667,177.225693 577.795166,177.088165 C575.479858,176.927048 573.142334,177.117493 570.815674,177.080292 C567.499634,177.027298 565.878296,178.562683 565.999634,181.924515 C566.059631,183.586777 566.012573,185.253296 565.999695,186.917770 C565.901855,199.579193 561.121399,204.306519 548.399292,204.327972 C537.022095,204.347137 532.000061,209.525665 532.320007,220.908524 C532.461914,225.957932 533.467468,226.778305 539.262390,225.606125 M485.421112,259.662292 C481.318542,259.648254 477.579224,261.042572 474.197113,263.133881 C470.249237,265.575043 467.413757,268.966248 467.309967,273.964478 C467.263458,276.204163 468.165680,278.011444 470.417145,278.431488 C472.439972,278.808899 475.339783,279.643982 476.245819,277.213837 C478.815247,270.322296 484.138550,268.368073 490.694580,268.006104 C493.327545,267.860718 493.743713,266.036743 493.777161,263.806824 C493.815460,261.253784 492.601044,260.209106 490.187103,260.142120 C488.864136,260.105438 487.545044,259.929108 485.421112,259.662292 M552.223328,263.040222 C547.701050,259.886414 542.570374,261.387970 537.678833,261.215179 C535.246216,261.129242 532.426331,260.878418 532.372803,264.716919 C532.322144,268.356445 534.965088,267.909485 537.237915,268.058716 C542.742615,268.420166 547.359985,270.281677 549.463684,275.847473 C550.765869,279.292694 553.416382,279.079193 556.022522,278.408691 C558.806641,277.692474 559.161011,275.279724 558.929077,272.795074 C558.539917,268.626007 555.825806,265.956207 552.223328,263.040222 M513.996704,326.279541 C509.547211,328.165741 507.623077,332.911926 502.029358,335.419189 C509.891357,337.219238 516.102539,336.973938 523.338928,335.901123 C519.812622,332.423492 516.643005,329.981873 513.996704,326.279541 M515.934998,107.926697 C516.173950,107.229454 518.029053,106.382187 516.186218,105.870827 C514.145020,105.304428 511.813110,104.599869 509.718506,106.204849 C512.551514,110.748802 512.551514,110.748802 515.934998,107.926697 z"/>
<path fill="#0d8b8a" d="M510.710754,178.466248 C505.476868,176.561844 503.485413,172.973465 503.613892,167.896317 C503.735992,163.071121 503.546600,158.237946 503.673218,153.412979 C503.816833,147.941483 506.877319,144.504288 511.960815,143.797516 C516.505798,143.165619 521.177368,145.755447 522.315613,150.525360 C524.025208,157.690170 524.120361,165.135956 522.128967,172.221207 C520.699524,177.307281 516.416443,179.298752 510.710754,178.466248 z"/>
</svg>