<svg version="1.1" id="Layer_1" xmlns="http://www.w3.org/2000/svg" xmlns:xlink="http://www.w3.org/1999/xlink" x="0px" y="0px"
	 width="100%" viewBox="0 0 1024 544" enable-background="new 0 0 1024 544" xml:space="preserve">
<path fill="#000000" opacity="1.000000" stroke="none" 
	d="
M606.956055,261.569397 
	C602.098511,293.831482 585.530396,317.602753 557.487366,333.117188 
	C516.087830,356.020905 461.493347,342.294647 435.242798,302.958435 
	C424.061615,286.203552 418.686615,267.901001 418.740082,247.864716 
	C418.788116,229.869232 418.764679,211.873566 418.791656,193.878006 
	C418.863983,145.596069 450.632996,107.658875 498.161255,99.083748 
	C548.203857,90.054970 598.743286,126.408348 606.370300,176.780853 
	C607.300659,182.925430 607.405273,189.049622 607.331665,195.197861 
	C607.068604,217.174942 608.105957,239.157333 606.956055,261.569397 
M470.941345,129.275604 
	C474.416992,128.466278 477.169861,127.062477 479.291046,123.714500 
	C481.981384,119.468224 486.507202,117.976105 491.571503,118.985489 
	C496.158875,119.899818 498.762573,122.981682 499.971863,127.293755 
	C500.600403,129.535004 500.354187,131.815826 497.796936,132.704254 
	C495.415039,133.531754 494.042236,132.054718 493.359772,129.892334 
	C492.527435,127.255173 491.204620,125.298523 488.007202,125.992973 
	C485.098114,126.624802 483.867920,128.858658 483.728241,131.479813 
	C483.463074,136.456818 483.460693,141.452698 483.508057,146.439240 
	C483.528870,148.631851 484.167450,150.761261 485.876617,152.309631 
	C487.715088,153.975189 489.587555,155.847519 487.307800,158.137726 
	C484.887634,160.568939 482.569244,158.685226 480.902313,156.801422 
	C478.805084,154.431412 477.169495,151.760132 473.366638,151.909302 
	C472.029358,151.961746 471.023102,150.694748 470.873199,149.193802 
	C470.722809,147.688232 471.550140,146.745087 472.786072,145.980972 
	C477.246124,143.223541 477.865173,140.745331 475.433533,135.724640 
	C468.308502,137.055618 464.432617,140.346390 463.428833,145.917130 
	C462.369812,151.794357 464.983490,156.331039 471.509918,159.924133 
	C472.822876,160.646973 474.197601,161.268036 475.463440,162.063965 
	C479.196106,164.410980 481.719208,167.808762 482.119904,172.145874 
	C482.562592,176.937347 482.317261,181.797668 482.267059,186.626923 
	C482.245422,188.709015 481.217865,190.201324 478.947205,190.179611 
	C476.615051,190.157303 475.840912,188.501236 475.770020,186.485092 
	C475.676361,183.822357 475.540741,181.141937 475.735565,178.492065 
	C476.200012,172.174179 473.615417,167.962967 467.666809,165.676132 
	C463.661743,164.136459 460.595337,161.454391 458.468475,157.624390 
	C456.114105,153.384674 453.023590,153.267212 450.137268,157.115311 
	C446.170624,162.403610 449.365356,168.795624 456.426605,169.698959 
	C464.827179,170.773621 467.284515,173.564651 467.340210,182.079163 
	C467.356537,184.577881 467.205841,187.095520 467.458313,189.571182 
	C467.992371,194.808594 470.305939,196.758743 475.609161,197.065689 
	C481.169067,197.387482 485.863770,196.362381 488.276459,190.500381 
	C489.082275,188.542572 490.850983,187.145752 493.109650,188.378372 
	C495.249268,189.546051 495.060913,191.569473 494.351654,193.655930 
	C493.944611,194.853287 492.708405,195.859207 493.618225,198.030869 
	C499.190155,198.611572 503.932770,202.282516 509.684357,205.747025 
	C509.684357,200.010223 509.619965,195.363342 509.709961,190.719452 
	C509.759277,188.174988 509.031433,184.898102 513.154785,184.822861 
	C517.173462,184.749481 516.909912,187.899124 516.906128,190.532242 
	C516.891724,200.526718 516.928467,210.525238 516.656067,220.514343 
	C516.344238,231.948776 523.703857,239.916061 534.760315,239.734879 
	C537.130615,239.696045 539.613647,239.938049 539.664673,236.390778 
	C539.713623,232.985504 537.298889,233.477768 535.164673,233.291168 
	C529.154846,232.765747 526.047119,229.342133 525.600891,223.225800 
	C524.911011,213.771469 526.201965,205.162750 535.405823,199.938278 
	C534.142822,197.658356 532.998962,195.995651 532.268250,194.167801 
	C531.443787,192.105591 531.013062,189.686569 533.413391,188.408279 
	C536.080017,186.988159 537.450012,189.113708 538.333130,191.137283 
	C541.345703,198.040100 548.922302,197.948914 554.380859,196.497467 
	C560.022644,194.997314 558.499329,189.696869 558.730347,185.526077 
	C558.757935,185.028061 558.722290,184.526672 558.719727,184.026825 
	C558.666931,173.555573 560.426208,171.504974 570.895874,169.634628 
	C574.281982,169.029724 576.782349,167.173843 577.566956,163.720963 
	C578.387024,160.111832 577.092285,157.142731 574.033997,155.048111 
	C571.738953,153.476288 569.801331,153.345520 568.540894,156.444473 
	C566.602966,161.208923 562.926086,164.263580 558.202026,165.994614 
	C552.883484,167.943481 550.857544,171.829086 550.910889,177.227112 
	C550.943604,180.549301 550.907166,183.885025 550.632141,187.192261 
	C550.481995,188.997467 549.266479,190.235901 547.268127,190.225311 
	C545.259827,190.214661 544.362488,188.902771 543.895691,187.142639 
	C540.641785,174.872910 544.799622,165.236420 555.982788,159.145401 
	C561.738647,156.010422 564.256531,151.121002 562.927124,145.660370 
	C561.448242,139.586273 557.006165,136.229675 549.606323,136.067551 
	C550.162659,139.825455 546.446899,144.804092 553.760803,146.018677 
	C555.173767,146.253326 555.946228,147.588486 555.771851,149.079010 
	C555.577942,150.736221 554.491089,152.091385 552.879822,152.024734 
	C549.557495,151.887329 547.733032,153.637329 546.143127,156.187714 
	C545.250183,157.620117 543.731506,158.496628 542.107666,158.990204 
	C540.689331,159.421326 539.469849,158.908127 538.578430,157.744019 
	C537.637207,156.514771 537.648376,155.175308 538.727905,154.113678 
	C545.999084,146.962845 541.897400,138.139160 542.145508,130.016144 
	C542.217590,127.657372 539.985352,125.814682 537.317688,125.795387 
	C535.027710,125.778839 533.759888,127.293839 533.282166,129.517258 
	C532.759460,131.950394 531.476257,133.650238 528.745239,132.678696 
	C526.260376,131.794739 525.879272,129.706955 526.472046,127.322845 
	C527.584290,122.849770 530.388123,119.893753 534.832703,118.989433 
	C539.810059,117.976707 544.300354,119.537529 547.118103,123.784119 
	C549.131714,126.818871 551.574402,128.254883 554.978699,129.204819 
	C561.739136,131.091248 566.956421,135.174744 569.140137,142.104050 
	C570.097961,145.143372 571.776062,146.604584 574.707886,147.681580 
	C582.976074,150.718826 586.684265,158.040802 584.149048,166.441101 
	C583.282837,169.311249 584.035522,170.918564 585.818420,173.023666 
	C590.684692,178.769379 589.833679,187.156418 583.412109,189.549911 
	C577.747559,191.661255 577.627869,195.154633 576.733093,199.955322 
	C575.421570,206.991699 573.429749,213.647888 576.132751,220.837311 
	C577.045532,223.265228 576.318848,226.632675 580.101074,226.490799 
	C583.663025,226.357178 584.569214,223.478180 584.627930,220.409363 
	C584.704407,216.411804 584.924683,212.391281 584.608521,208.418427 
	C584.209961,203.410553 586.046692,199.940414 590.075745,196.961792 
	C596.760559,192.019745 599.883362,185.029129 598.577148,176.827621 
	C593.522827,145.090805 569.874023,117.621635 536.545654,108.611481 
	C526.007690,105.762604 517.704895,112.575546 517.097839,123.502220 
	C516.913147,126.826477 517.048340,130.168594 516.860229,133.492538 
	C516.728638,135.817566 515.860840,137.962296 513.056580,137.768265 
	C510.678131,137.603699 509.769165,135.768219 509.736267,133.517868 
	C509.702179,131.185638 509.703217,128.852921 509.683746,126.520462 
	C509.563904,112.154533 499.920959,104.728554 486.423370,109.497925 
	C455.718445,120.347519 436.089325,141.546494 428.323975,173.434128 
	C425.876678,183.483810 428.743561,191.533401 437.006744,197.555893 
	C440.927826,200.413727 442.380768,204.008057 442.177399,208.727402 
	C441.984131,213.212646 442.112701,217.724121 442.352081,222.210617 
	C442.480225,224.612610 444.043030,226.394669 446.494080,226.432022 
	C448.994324,226.470108 449.545044,224.441055 449.813995,222.258865 
	C450.645477,215.513412 454.180420,208.850342 449.865692,201.987122 
	C449.105164,200.777405 449.524200,198.704117 449.690216,197.059067 
	C450.044922,193.544022 448.803619,191.680084 445.207306,190.573715 
	C439.077271,188.687851 436.347473,183.044373 438.002350,177.158127 
	C438.861053,174.103790 441.345093,172.279694 443.249908,170.119064 
	C439.565277,157.041977 441.720673,152.240768 453.881622,146.844818 
	C455.692413,146.041336 456.261017,144.814102 456.771606,143.161850 
	C458.888184,136.312988 463.331299,131.704178 470.941345,129.275604 
M493.296051,322.105865 
	C482.010925,323.798645 472.685730,317.662567 468.552612,305.844574 
	C467.751923,303.555115 467.469788,301.087036 464.234161,300.435913 
	C451.861938,297.946045 445.477783,289.880798 443.775879,277.711914 
	C443.565186,276.205353 443.625427,274.516266 441.826416,274.038879 
	C437.387115,272.860779 433.448151,270.420929 428.688446,268.452698 
	C429.669800,276.013550 432.197327,282.297089 435.329559,288.339386 
	C445.454376,307.871277 460.353546,322.386078 481.090515,330.163361 
	C495.727112,335.652679 509.647095,325.638214 509.679291,310.057068 
	C509.736816,282.234772 509.742218,254.412064 509.647980,226.589935 
	C509.603760,213.535263 500.776489,204.665131 487.722717,204.317963 
	C483.227936,204.198410 478.722687,204.433884 474.230072,204.279297 
	C466.380524,204.009216 461.169678,198.883896 460.724457,191.047989 
	C460.545135,187.891983 460.682129,184.718765 460.641144,181.553833 
	C460.618744,179.822281 460.361145,177.907135 458.416473,177.531937 
	C455.016083,176.875916 451.562561,176.003586 448.053497,176.949112 
	C446.320068,177.416183 444.970093,178.374557 444.852417,180.313278 
	C444.736328,182.225708 445.874268,183.779221 447.549469,184.080246 
	C455.602966,185.527374 456.450684,191.175598 456.391510,197.895889 
	C456.315918,206.487869 461.366547,211.449051 470.034882,211.759460 
	C474.694153,211.926315 479.366730,211.712112 484.027008,211.863281 
	C492.168060,212.127335 497.795135,215.950989 499.836365,222.539642 
	C501.543091,228.048523 501.312408,233.734802 501.052399,239.392746 
	C500.949585,241.629883 499.815643,243.271255 497.322235,243.190094 
	C495.063934,243.116592 494.123505,241.437317 493.989868,239.494293 
	C493.773102,236.341934 493.853241,233.169952 493.776672,230.007019 
	C493.580078,221.882919 490.984131,219.367447 482.879730,219.239166 
	C475.752380,219.126358 468.590485,219.898529 461.585632,217.508469 
	C458.161835,216.340271 457.467499,218.842072 457.255829,221.746170 
	C456.668274,229.806198 453.241730,233.421906 446.550476,233.370697 
	C439.871002,233.319565 435.195221,228.463364 434.834503,221.046997 
	C434.697113,218.222061 434.435150,215.314560 434.917572,212.565338 
	C436.172852,205.411423 432.105835,201.713104 426.304413,198.103561 
	C426.304413,205.542465 426.287384,212.353256 426.307861,219.163925 
	C426.354523,234.688812 433.313660,241.588943 448.930481,241.622299 
	C462.133026,241.650497 462.124664,241.648697 464.826477,229.149719 
	C464.995636,228.367142 465.258911,227.432632 465.809509,226.935638 
	C467.831451,225.110626 469.859314,225.207123 471.020325,227.820404 
	C474.751678,236.219101 467.705261,247.565903 458.338593,248.292480 
	C455.853363,248.485275 453.340759,248.430374 450.844788,248.355225 
	C446.985321,248.238998 443.495941,248.563950 441.932404,252.990494 
	C441.411072,254.466461 440.028046,255.379288 438.310242,254.934311 
	C436.695496,254.516037 435.542053,253.307739 435.792633,251.658829 
	C436.894958,244.405945 430.179382,245.076767 426.817993,241.370422 
	C425.441711,253.555206 430.409241,262.432526 439.517975,265.825073 
	C442.729065,267.021057 444.795044,266.798279 446.182007,263.217285 
	C447.127808,260.775177 448.745636,258.558014 450.271545,256.386841 
	C451.550629,254.566895 453.229095,252.836807 455.665314,254.514511 
	C457.992981,256.117523 457.358765,258.190704 456.033447,260.197601 
	C455.116455,261.586182 454.134979,262.950745 453.387543,264.429718 
	C447.157410,276.756683 453.277710,294.928345 470.877960,293.988922 
	C473.369507,293.855957 475.887054,293.829529 478.370789,294.027374 
	C481.315094,294.261841 485.737915,293.033661 485.967651,297.455658 
	C486.213074,302.179321 481.745209,301.044952 478.787170,301.239502 
	C476.418030,301.395325 474.564941,301.953156 475.754547,304.779144 
	C477.999969,310.113159 481.769897,314.019012 487.523193,315.440338 
	C491.147766,316.335754 493.461090,314.592804 493.633667,310.855743 
	C493.833191,306.535767 493.933105,302.171417 493.548798,297.873535 
	C492.961121,291.301117 487.926727,286.708771 481.299255,286.182587 
	C477.649658,285.892853 473.974274,285.823578 470.348663,285.357788 
	C462.442291,284.342133 458.308105,277.877991 460.448730,270.141937 
	C462.581818,262.433044 467.805145,257.394257 475.094696,254.976807 
	C478.948944,253.698639 479.931641,251.850922 479.796783,248.197739 
	C479.581787,242.375031 479.751831,236.537918 479.770020,230.706924 
	C479.777679,228.256454 479.989838,225.708588 483.167236,225.609970 
	C486.330383,225.511795 486.846130,228.110245 486.932281,230.493744 
	C487.118744,235.652878 487.414490,240.844513 487.038971,245.977020 
	C486.680420,250.877579 487.984802,253.514664 493.322388,253.649521 
	C497.812988,253.762924 500.060028,256.618713 500.841217,260.929962 
	C502.509125,270.134491 498.846985,274.774933 489.348236,275.279755 
	C487.055542,275.401611 484.616760,275.247406 483.904724,278.795227 
	C489.148773,280.726562 494.403046,282.808746 497.269531,287.831848 
	C502.353973,296.741516 502.172272,306.321228 499.795349,315.914032 
	C499.104767,318.701050 496.683624,320.577393 493.296051,322.105865 
M525.671692,302.569580 
	C525.022400,290.331238 530.346130,282.165375 542.586365,278.924286 
	C541.569031,276.080780 539.755615,275.579102 537.708923,275.349030 
	C529.627502,274.440735 523.169067,277.770416 519.939148,284.768097 
	C514.571899,296.396179 514.588318,308.945435 519.356934,320.614136 
	C523.740051,331.339325 536.873535,334.591217 549.078125,328.822388 
	C573.644958,317.210419 589.788391,298.251892 597.252991,272.044586 
	C597.615417,270.772125 597.580688,269.386597 597.788269,267.545471 
	C593.923645,270.376831 590.498047,272.438416 586.534058,273.318481 
	C583.683838,273.951263 582.519958,275.454987 582.247009,278.474640 
	C581.254028,289.458618 574.986755,297.192780 564.377014,299.965973 
	C560.420776,301.000061 558.648926,302.960236 557.437866,306.642761 
	C554.403137,315.871246 547.858459,321.274658 538.177673,322.499756 
	C531.251221,323.376343 526.202393,319.042572 525.743286,312.034149 
	C525.558533,309.213287 525.685791,306.372009 525.671692,302.569580 
M592.453308,204.327667 
	C591.086487,205.857819 591.348267,207.746475 591.336060,209.558182 
	C591.306885,213.886795 591.441528,218.220169 591.284058,222.543381 
	C591.059692,228.701797 586.918945,232.954086 581.036682,233.330917 
	C574.494324,233.750031 570.792786,230.794998 569.604736,224.198425 
	C569.427734,223.215576 569.213745,222.234512 569.117737,221.242859 
	C568.776550,217.720505 566.997192,216.720520 563.641479,217.749451 
	C559.970581,218.875031 556.176208,219.463058 552.312256,219.209427 
	C548.389709,218.951965 546.930176,220.927521 547.023254,224.630554 
	C547.115173,228.290588 547.074463,231.956085 547.007080,235.617615 
	C546.849854,244.164108 543.504028,247.258133 534.961792,247.137360 
	C528.483093,247.045746 522.801697,244.605011 517.208191,240.761673 
	C517.208191,252.597183 517.208191,263.567719 517.208191,274.993073 
	C522.903687,272.350433 526.398682,269.558472 525.825195,263.107635 
	C525.307556,257.285248 528.606750,254.268402 534.468323,253.786957 
	C536.619812,253.610229 538.794678,253.729736 540.958374,253.689011 
	C549.135742,253.535126 554.272461,248.548431 554.635498,240.317322 
	C554.760193,237.491974 554.639526,234.656693 554.698608,231.827347 
	C554.753662,229.188080 554.353638,225.932312 558.212402,225.866760 
	C562.073059,225.801193 561.197754,229.106094 561.327393,231.442368 
	C561.709595,238.329239 564.784424,241.452957 571.585632,241.630920 
	C574.580627,241.709290 577.579041,241.664169 580.575867,241.669968 
	C589.102722,241.686478 595.995422,237.345718 598.495605,229.266876 
	C601.529724,219.462631 599.558228,209.373322 599.840698,198.327209 
	C596.852539,200.703873 594.917419,202.242966 592.453308,204.327667 
M552.197815,286.001923 
	C549.372437,286.109619 546.523315,286.024506 543.726868,286.367645 
	C538.817993,286.969910 535.314941,289.887146 533.773682,294.400055 
	C531.926208,299.809448 532.006287,305.554321 532.755981,311.198303 
	C533.114685,313.898865 534.573120,315.781525 537.749512,315.672760 
	C543.802734,315.465515 550.817078,307.940704 550.635986,301.138611 
	C548.528687,301.138611 546.395935,301.220245 544.272400,301.115997 
	C542.085205,301.008667 540.220276,300.079742 540.094910,297.677216 
	C539.957153,295.036560 542.142639,294.375824 544.171265,294.258972 
	C548.817871,293.991455 553.482483,294.053436 558.133606,293.843292 
	C566.318115,293.473480 572.535583,288.368134 574.759460,280.485413 
	C576.824768,273.165039 574.780212,266.688995 570.782715,260.641357 
	C569.367493,258.500397 568.270752,256.369934 570.730042,254.537918 
	C573.386780,252.558807 575.077271,254.757172 576.400085,256.672943 
	C577.903442,258.850311 579.373108,261.132629 580.348816,263.572693 
	C581.670837,266.878662 583.648926,267.156738 586.647278,266.035400 
	C596.245483,262.445831 601.497681,252.718994 599.089478,241.867752 
	C595.710388,245.128006 589.036987,244.940994 590.657043,252.257782 
	C590.924561,253.466110 589.589355,254.677704 588.151733,254.995316 
	C586.416626,255.378632 585.045227,254.475922 584.561401,252.986374 
	C583.093872,248.468307 579.604919,248.228622 575.746155,248.327667 
	C570.951660,248.450760 566.127563,248.648743 561.150452,246.307968 
	C559.838684,250.041183 557.641479,252.909958 555.328003,256.095062 
	C557.191772,257.748230 559.066895,259.115692 560.578247,260.808014 
	C564.995667,265.754272 567.635681,271.442535 565.718811,278.160400 
	C563.949341,284.361420 558.652832,285.531464 552.197815,286.001923 
M539.262390,225.606125 
	C540.998779,214.335541 543.462708,212.162857 554.812561,211.892929 
	C555.311768,211.881058 555.811340,211.872818 556.309998,211.848633 
	C565.166504,211.419037 569.732849,206.874130 569.758057,197.958221 
	C569.777039,191.253632 570.884521,185.623871 578.814697,184.153290 
	C580.536804,183.833969 581.676025,182.357162 581.518982,180.430206 
	C581.339905,178.231918 579.771667,177.225693 577.795166,177.088165 
	C575.479858,176.927048 573.142334,177.117493 570.815674,177.080292 
	C567.499634,177.027298 565.878296,178.562683 565.999634,181.924515 
	C566.059631,183.586777 566.012573,185.253296 565.999695,186.917770 
	C565.901855,199.579193 561.121399,204.306519 548.399292,204.327972 
	C537.022095,204.347137 532.000061,209.525665 532.320007,220.908524 
	C532.461914,225.957932 533.467468,226.778305 539.262390,225.606125 
M485.421112,259.662292 
	C481.318542,259.648254 477.579224,261.042572 474.197113,263.133881 
	C470.249237,265.575043 467.413757,268.966248 467.309967,273.964478 
	C467.263458,276.204163 468.165680,278.011444 470.417145,278.431488 
	C472.439972,278.808899 475.339783,279.643982 476.245819,277.213837 
	C478.815247,270.322296 484.138550,268.368073 490.694580,268.006104 
	C493.327545,267.860718 493.743713,266.036743 493.777161,263.806824 
	C493.815460,261.253784 492.601044,260.209106 490.187103,260.142120 
	C488.864136,260.105438 487.545044,259.929108 485.421112,259.662292 
M552.223328,263.040222 
	C547.701050,259.886414 542.570374,261.387970 537.678833,261.215179 
	C535.246216,261.129242 532.426331,260.878418 532.372803,264.716919 
	C532.322144,268.356445 534.965088,267.909485 537.237915,268.058716 
	C542.742615,268.420166 547.359985,270.281677 549.463684,275.847473 
	C550.765869,279.292694 553.416382,279.079193 556.022522,278.408691 
	C558.806641,277.692474 559.161011,275.279724 558.929077,272.795074 
	C558.539917,268.626007 555.825806,265.956207 552.223328,263.040222 
M513.996704,326.279541 
	C509.547211,328.165741 507.623077,332.911926 502.029358,335.419189 
	C509.891357,337.219238 516.102539,336.973938 523.338928,335.901123 
	C519.812622,332.423492 516.643005,329.981873 513.996704,326.279541 
M515.934998,107.926697 
	C516.173950,107.229454 518.029053,106.382187 516.186218,105.870827 
	C514.145020,105.304428 511.813110,104.599869 509.718506,106.204849 
	C512.551514,110.748802 512.551514,110.748802 515.934998,107.926697 
z"/>
<path fill="#000000" opacity="1.000000" stroke="none" 
	d="
M484.319458,368.412323 
	C498.266296,375.583679 503.841492,389.608276 498.531433,403.462067 
	C493.287506,417.143402 478.167572,424.111603 462.561249,419.735199 
	C448.102417,415.680603 441.528595,404.971924 442.342896,391.935028 
	C443.287598,376.810547 454.480042,366.531067 469.348694,365.740112 
	C474.421631,365.470245 479.305084,366.199249 484.319458,368.412323 
M473.960175,408.700470 
	C480.886688,407.536621 484.698914,403.108185 486.163177,396.574493 
	C487.553864,390.369171 485.542999,384.966492 480.773468,380.969421 
	C476.110474,377.061584 470.662201,376.233093 464.938019,378.807404 
	C458.328766,381.779755 454.821716,389.401337 456.457153,397.205811 
	C458.082214,404.960968 463.838074,408.953339 473.960175,408.700470 
z"/>
<path fill="#000000" opacity="1.000000" stroke="none" 
	d="
M395.142822,420.064148 
	C391.073364,420.288818 389.681610,418.643188 389.710602,415.000122 
	C389.826019,400.510193 389.819855,386.018036 389.687714,371.528259 
	C389.653900,367.817108 391.110474,366.549347 394.724243,366.636230 
	C402.215302,366.816376 409.721924,366.475647 417.206787,366.757385 
	C431.303192,367.287933 439.985535,379.013306 436.232483,392.094757 
	C435.326508,395.252502 433.670654,398.003571 430.983398,399.786102 
	C427.349915,402.196289 427.879761,404.431885 430.182861,407.505615 
	C432.741058,410.919739 435.605225,414.238525 436.941528,418.420929 
	C430.796906,422.056152 423.725983,420.509949 420.174408,414.903717 
	C418.838196,412.794464 417.490173,410.691833 416.102386,408.616364 
	C414.140198,405.681854 408.135406,404.107849 405.010284,405.621490 
	C403.776184,406.219238 403.411987,407.230835 403.380768,408.461182 
	C403.346924,409.792969 403.336914,411.125580 403.332062,412.457855 
	C403.304443,420.054016 403.306061,420.054016 395.142822,420.064148 
M407.778503,393.900818 
	C410.771454,393.815155 413.813324,394.036102 416.745300,393.568268 
	C420.640747,392.946716 422.865112,390.412231 423.025482,386.337830 
	C423.183258,382.327942 421.336273,379.597504 417.520020,378.425659 
	C406.133850,374.929291 403.137024,377.133911 403.333160,388.718414 
	C403.341614,389.217712 403.370728,389.718933 403.339996,390.216156 
	C403.183777,392.742645 404.402466,393.919952 407.778503,393.900818 
z"/>
<path fill="#000000" opacity="1.000000" stroke="none" 
	d="
M598.553833,367.136841 
	C610.618530,366.855255 622.276001,366.841553 633.931458,366.685028 
	C638.740784,366.620483 637.906494,370.024658 638.140015,372.922485 
	C638.413757,376.319824 637.149109,377.680634 633.544495,377.506012 
	C627.727478,377.224213 621.886536,377.432831 616.055664,377.445679 
	C612.410217,377.453735 610.216797,378.507507 610.267456,382.939178 
	C610.317810,387.349915 612.599609,387.774841 615.994446,387.687469 
	C620.489563,387.571747 625.009949,387.928467 629.482788,387.593231 
	C634.044067,387.251373 635.173523,389.274445 635.193054,393.428436 
	C635.212402,397.552032 633.397156,398.549683 629.705811,398.397125 
	C624.716919,398.190948 619.702393,398.564178 614.717224,398.317535 
	C610.296509,398.098846 610.596924,400.951416 610.400330,403.853333 
	C610.178528,407.125885 611.134460,408.836548 614.807861,408.736359 
	C621.300171,408.559235 627.807983,408.886627 634.296021,408.645416 
	C638.322998,408.495667 639.531982,410.120422 639.385315,413.931519 
	C639.254272,417.334167 639.434082,420.214233 634.613770,420.130280 
	C623.788147,419.941620 612.956970,420.059967 602.128052,420.083893 
	C599.351440,420.090027 597.101929,419.585358 597.107605,416.097565 
	C597.132507,400.772186 597.120239,385.446686 597.192139,370.121613 
	C597.196472,369.195312 597.813660,368.271912 598.553833,367.136841 
z"/>
<path fill="#000000" opacity="1.000000" stroke="none" 
	d="
M300.720367,378.413574 
	C297.434998,382.537567 297.782684,384.132843 302.307892,385.861450 
	C308.207581,388.115051 314.640747,388.596527 320.421448,391.347198 
	C329.653229,395.739960 331.879761,405.949615 325.183472,413.721130 
	C323.195404,416.028320 320.874573,417.887543 317.987213,418.944519 
	C307.297791,422.857574 297.017212,421.160095 287.058289,416.444183 
	C280.779083,413.470734 285.820770,409.671234 286.799408,406.459259 
	C287.946289,402.694916 290.382996,404.947235 292.322052,405.990906 
	C297.606903,408.835205 303.191010,410.119202 309.145477,409.022858 
	C311.546051,408.580841 314.441162,408.261444 314.729401,405.021973 
	C315.036591,401.569977 311.986633,401.202606 309.708069,400.521118 
	C305.570312,399.283539 301.301910,398.481720 297.166870,397.236298 
	C288.652008,394.671814 284.752808,390.181732 284.621216,383.136139 
	C284.478577,375.499664 288.383392,370.120148 296.638123,367.340088 
	C305.919800,364.214142 315.048401,365.282410 323.826813,369.361542 
	C329.188751,371.853149 324.606689,374.952820 323.990753,377.663147 
	C323.391846,380.298767 321.864136,381.565918 318.869171,379.867493 
	C313.241577,376.676147 307.231049,376.188629 300.720367,378.413574 
z"/>
<path fill="#000000" opacity="1.000000" stroke="none" 
	d="
M383.269836,375.154968 
	C382.902832,377.453308 381.047058,378.260925 379.932526,379.669250 
	C377.347870,382.935333 375.093628,383.400269 371.275085,380.615906 
	C361.811493,373.715179 350.053467,378.298584 346.919861,389.594971 
	C345.266449,395.555298 348.146362,402.864319 353.620361,406.600403 
	C358.629700,410.019348 366.586945,409.721191 371.432526,406.038696 
	C372.801544,404.998260 373.903076,402.521210 375.903137,403.616760 
	C378.785645,405.195679 381.522644,407.301819 383.257843,410.178192 
	C384.229919,411.789612 382.475067,412.826172 381.397827,413.820709 
	C371.790894,422.689728 355.421478,423.561920 344.335205,415.801392 
	C333.764099,408.401581 329.858429,394.687622 334.849060,382.493103 
	C339.713806,370.606262 353.397949,363.569244 366.966400,366.085022 
	C373.285797,367.256775 379.196655,369.319000 383.269836,375.154968 
z"/>
<path fill="#000000" opacity="1.000000" stroke="none" 
	d="
M673.917847,421.109314 
	C656.339355,420.035126 645.123840,410.508484 643.778625,395.901398 
	C642.095825,377.628693 658.564514,362.969177 677.360229,365.989990 
	C682.883423,366.877686 687.932068,368.772400 692.279541,372.425415 
	C694.470764,374.266632 694.954102,375.769958 692.753174,378.139221 
	C687.813843,383.456360 687.800598,383.578033 681.646240,379.663727 
	C675.260376,375.602203 665.941223,377.039673 661.228088,382.813171 
	C656.252930,388.907715 656.328064,398.186462 661.399353,403.946198 
	C666.491516,409.729645 675.954102,411.005188 682.231018,406.205658 
	C685.626526,403.609406 687.894775,402.633484 691.205322,406.387939 
	C695.451660,411.203461 695.640198,412.121857 690.289185,415.866638 
	C685.510010,419.211304 680.058716,420.538300 673.917847,421.109314 
z"/>
<path fill="#000000" opacity="1.000000" stroke="none" 
	d="
M726.287354,391.019165 
	C726.289429,399.169373 725.968384,406.841309 726.402466,414.470245 
	C726.730530,420.238342 723.343811,420.019287 719.443848,420.065918 
	C715.326660,420.115173 712.415833,419.678070 712.614075,414.218018 
	C712.976013,404.248566 712.427002,394.245270 712.817993,384.278076 
	C713.023499,379.041046 711.015930,377.340607 706.194702,377.878662 
	C705.209595,377.988647 704.200134,377.883423 703.201904,377.873169 
	C697.152893,377.811035 694.738770,374.215271 696.865845,368.596466 
	C697.467834,367.006378 698.650452,366.750183 700.009705,366.746796 
	C713.153320,366.713837 726.297058,366.733154 739.440491,366.677124 
	C742.724426,366.663147 743.323364,368.648376 743.121704,371.269745 
	C742.921692,373.868530 744.278198,377.408142 739.809143,377.726166 
	C737.500732,377.890442 735.162415,377.700928 732.840759,377.600372 
	C727.102783,377.351959 726.317139,378.103912 726.290833,384.033600 
	C726.281250,386.196503 726.289001,388.359497 726.287354,391.019165 
z"/>
<path fill="#000000" opacity="1.000000" stroke="none" 
	d="
M584.823364,420.096680 
	C575.536865,420.087799 566.724182,419.940979 557.918701,420.128662 
	C553.723389,420.218048 551.926636,418.829987 551.975220,414.421265 
	C552.132751,400.128357 552.061462,385.831970 551.958496,371.537781 
	C551.932434,367.917114 553.347961,366.633759 557.005371,366.623108 
	C565.857056,366.597382 565.955627,366.470673 565.981934,375.211548 
	C566.010376,384.685150 566.106934,394.166962 565.751587,403.629395 
	C565.596375,407.764435 567.135254,408.882721 570.922241,408.730560 
	C576.066772,408.523834 581.233337,408.849182 586.376282,408.623535 
	C590.262146,408.453033 592.146545,409.533783 592.152710,413.850006 
	C592.158875,418.148193 591.099609,420.666046 586.296997,420.095612 
	C585.969360,420.056671 585.632629,420.094116 584.823364,420.096680 
z"/>
<path fill="#000000" opacity="1.000000" stroke="none" 
	d="
M509.450989,419.673645 
	C507.404846,418.587799 507.568329,416.977448 507.623413,415.524292 
	C508.177826,400.891785 506.699036,386.278778 507.440887,371.621094 
	C507.755402,365.407745 511.504730,366.958893 514.897827,366.680267 
	C518.719055,366.366486 521.285217,366.995422 521.183411,371.868744 
	C520.961060,382.513885 521.256714,393.169067 521.116638,403.817200 
	C521.068481,407.480621 522.336609,408.895111 526.048523,408.738007 
	C531.364075,408.513000 536.699707,408.799530 542.020508,408.648865 
	C545.434204,408.552216 547.441772,409.412689 547.197571,413.354767 
	C546.987366,416.747742 547.511597,420.203094 542.327148,420.103119 
	C531.516907,419.894623 520.702393,419.907776 509.450989,419.673645 
z"/>
<path fill="#000000" opacity="1.000000" stroke="none" 
	d="
M406.066711,448.338196 
	C406.957764,445.856018 407.728546,443.659515 408.462219,441.450714 
	C408.938904,440.015656 409.300995,438.403534 411.169708,438.301392 
	C413.392365,438.179901 413.619720,440.135284 414.283936,441.609802 
	C415.476868,444.257904 415.497314,447.413086 417.707367,449.916992 
	C420.855286,446.496307 419.728760,441.259949 423.324341,438.431244 
	C424.012207,437.890076 424.918121,438.290588 425.984772,439.298248 
	C424.922821,445.047455 422.764435,450.775818 420.429718,456.382507 
	C419.205231,459.323120 416.259552,459.068390 414.900787,456.067230 
	C413.677094,453.364349 412.825836,450.492889 411.702881,447.399902 
	C409.362671,449.796051 409.120667,452.671265 408.194641,455.241394 
	C407.627106,456.816589 407.126404,458.460419 404.934631,458.421783 
	C403.009552,458.387817 402.440887,456.949921 401.960663,455.536255 
	C400.463531,451.128876 398.994019,446.710266 397.635132,442.258942 
	C397.246979,440.987488 396.017120,439.176117 398.299408,438.517548 
	C400.558411,437.865723 400.972137,439.794922 401.505768,441.404846 
	C402.290009,443.770660 403.108307,446.126892 403.987061,448.458954 
	C404.462036,449.719360 405.163483,450.021179 406.066711,448.338196 
z"/>
<path fill="#000000" opacity="1.000000" stroke="none" 
	d="
M524.325378,458.086792 
	C521.911438,452.107269 522.759766,446.082367 523.277161,440.230804 
	C523.573669,436.877533 526.223755,437.819336 527.920898,439.758942 
	C530.528992,442.739716 532.530457,446.254303 536.087402,449.042084 
	C537.254150,446.307129 536.488403,443.672028 536.752686,441.173096 
	C536.905273,439.730835 537.232544,438.442352 538.954407,438.414825 
	C540.733704,438.386414 541.110168,439.763550 541.128296,441.159088 
	C541.188721,445.816345 541.195862,450.474762 541.167480,455.132416 
	C541.159241,456.482605 540.992920,457.857513 539.300903,458.239441 
	C537.750732,458.589325 536.799866,457.669647 535.928772,456.604187 
	C533.528687,453.668610 531.129822,450.732025 528.421997,447.418365 
	C526.649963,449.966522 527.587097,452.327362 527.313782,454.472290 
	C527.089783,456.229004 527.587708,458.398468 524.325378,458.086792 
z"/>
<path fill="#000000" opacity="1.000000" stroke="none" 
	d="
M502.839203,453.502808 
	C498.697021,459.932190 492.653992,458.687592 486.884857,458.306641 
	C484.863983,458.173218 484.688782,456.576965 484.663696,455.025360 
	C484.591095,450.536591 484.553070,446.047241 484.505615,441.558075 
	C484.490814,440.156708 484.767120,439.014740 486.294464,438.364502 
	C489.578827,436.966339 498.270020,438.445190 500.969147,441.226410 
	C504.310730,444.669708 504.988983,448.728241 502.839203,453.502808 
M498.204742,444.290405 
	C495.939667,442.053833 493.056396,441.423157 490.404755,442.755371 
	C487.910553,444.008484 489.010742,446.952362 488.988342,449.155396 
	C488.966309,451.316528 487.350769,454.560577 491.644836,454.765961 
	C495.259247,454.938843 498.360657,454.052063 499.496216,450.144806 
	C500.012177,448.369537 499.864502,446.500458 498.204742,444.290405 
z"/>
<path fill="#000000" opacity="1.000000" stroke="none" 
	d="
M691.717407,444.197205 
	C691.074524,439.245880 693.387146,437.954224 697.466858,437.949188 
	C706.588806,437.937927 711.562439,441.803741 711.350098,449.061432 
	C711.206482,453.968719 708.092651,457.517487 703.263916,458.274536 
	C703.100586,458.300110 702.933655,458.302460 702.769165,458.321655 
	C692.313660,459.541626 691.748474,459.046112 691.733032,448.650055 
	C691.731018,447.323700 691.724854,445.997375 691.717407,444.197205 
M702.689697,442.469116 
	C696.166504,442.005920 696.029236,442.078888 696.232361,449.264740 
	C696.291016,451.339264 695.202332,454.309387 698.795837,454.678925 
	C702.299927,455.039246 705.526794,454.372253 706.782593,450.490387 
	C707.901306,447.032471 706.734314,444.359100 702.689697,442.469116 
z"/>
<path fill="#000000" opacity="1.000000" stroke="none" 
	d="
M462.783081,448.166321 
	C458.980499,451.634644 461.958435,454.709930 462.983459,457.695007 
	C460.126953,459.178009 458.833313,457.527496 457.366089,455.791290 
	C454.219727,452.068024 453.184204,452.175934 450.813873,456.366547 
	C450.176819,457.492706 449.584473,458.349762 448.185699,458.002838 
	C446.995026,457.707489 446.768311,456.667969 446.759949,455.669495 
	C446.719604,450.862854 446.725464,446.055664 446.747894,441.248810 
	C446.753540,440.034698 447.061432,438.820648 448.409821,438.506165 
	C452.381531,437.579865 456.386993,437.571075 460.006897,439.591705 
	C463.191467,441.369293 463.766663,444.422699 462.783081,448.166321 
M453.616272,442.286011 
	C450.426086,442.853485 450.911438,445.240570 451.489471,447.231506 
	C452.086853,449.289032 454.079163,448.882233 455.665833,448.631409 
	C457.480255,448.344543 458.717926,447.188232 458.618713,445.294342 
	C458.482391,442.692352 456.467163,442.341888 453.616272,442.286011 
z"/>
<path fill="#000000" opacity="1.000000" stroke="none" 
	d="
M380.583618,439.227600 
	C390.079437,436.224915 397.774353,442.105316 396.009399,450.564545 
	C394.979156,455.502655 391.209778,458.756073 386.204071,459.027710 
	C381.629242,459.275940 377.253876,456.465820 375.554047,452.187561 
	C373.564209,447.179199 374.948822,443.408173 380.583618,439.227600 
M379.301819,447.745667 
	C379.205933,451.284668 380.427887,454.046234 384.194580,454.715515 
	C387.676392,455.334198 390.603973,454.202271 391.516022,450.466919 
	C392.332397,447.123596 391.624695,443.954254 387.961823,442.712128 
	C383.890289,441.331451 380.806366,442.671387 379.301819,447.745667 
z"/>
<path fill="#000000" opacity="1.000000" stroke="none" 
	d="
M334.977295,458.081482 
	C333.265259,458.692139 332.264435,458.136383 331.250854,457.043030 
	C327.381927,452.869659 323.348358,452.891022 319.368805,456.976990 
	C318.401215,457.970490 318.401245,457.970520 314.655762,457.757019 
	C317.450104,451.507599 319.931427,445.441132 322.888214,439.615997 
	C323.973694,437.477478 326.407959,437.367218 327.567902,439.810028 
	C330.374573,445.720642 333.708405,451.426025 334.977295,458.081482 
z"/>
<path fill="#000000" opacity="1.000000" stroke="none" 
	d="
M436.450226,442.221985 
	C434.346130,442.359833 432.379272,442.391632 432.708130,444.809814 
	C432.977936,446.793549 434.839539,446.438049 436.293091,446.630066 
	C438.251984,446.888824 440.708588,445.731140 441.974792,448.465851 
	C440.556732,451.356293 437.900940,449.960602 435.811005,450.273132 
	C434.255798,450.505676 432.623962,450.588654 432.595367,452.581573 
	C432.565460,454.663757 434.269653,454.741638 435.804138,454.799316 
	C437.627319,454.867889 439.455688,454.841614 441.274811,454.961823 
	C442.368042,455.033997 443.138824,455.647614 443.197174,456.840485 
	C443.260193,458.129333 442.324768,458.607697 441.311554,458.712646 
	C437.834503,459.072906 434.356995,459.042786 430.895081,458.449310 
	C428.981659,458.121246 428.633636,456.737701 428.595428,455.149353 
	C428.483734,450.505005 428.423126,445.859222 428.284027,441.215759 
	C428.219543,439.062805 429.451660,438.172424 431.322357,438.082703 
	C433.972321,437.955597 436.634521,437.940186 439.285736,438.036163 
	C440.871979,438.093597 443.043701,437.924744 442.885040,440.344238 
	C442.755096,442.326569 440.817291,442.117065 439.355774,442.209229 
	C438.528961,442.261353 437.695923,442.214966 436.450226,442.221985 
z"/>
<path fill="#000000" opacity="1.000000" stroke="none" 
	d="
M466.469116,440.469543 
	C470.535797,436.239288 475.262299,438.362640 479.702728,438.455597 
	C480.523224,438.472748 481.000519,439.476685 480.872864,440.388275 
	C480.708405,441.562775 479.807861,442.057098 478.753174,442.118866 
	C476.927795,442.225677 475.094269,442.184601 473.265869,442.251770 
	C472.066711,442.295868 470.806366,442.463745 470.636139,443.962982 
	C470.438843,445.700775 471.757599,446.095551 473.101685,446.512695 
	C475.314911,447.199646 479.482544,445.297241 479.489807,448.259430 
	C479.498810,451.938446 475.285675,449.751099 472.984863,450.344360 
	C471.517761,450.722626 470.436523,451.244965 470.583588,452.917084 
	C470.714203,454.401825 471.897339,454.718353 473.116821,454.770599 
	C474.945099,454.848907 476.778839,454.799988 478.606873,454.881439 
	C479.845337,454.936615 480.994781,455.310272 480.964050,456.846100 
	C480.932800,458.408569 479.648468,458.721985 478.495300,458.711151 
	C475.338867,458.681519 472.183807,458.488403 469.028625,458.350616 
	C466.691223,458.248505 466.484558,456.449493 466.445679,454.791626 
	C466.336884,450.151947 466.378113,445.508759 466.469116,440.469543 
z"/>
<path fill="#000000" opacity="1.000000" stroke="none" 
	d="
M362.586609,453.455475 
	C361.790833,454.483887 361.263489,455.325134 360.948090,456.239532 
	C360.513672,457.499084 359.813202,458.285217 358.411407,458.059906 
	C357.195801,457.864532 356.823883,456.866455 356.812897,455.844452 
	C356.759338,450.852173 356.759491,445.859070 356.785767,440.866486 
	C356.791321,439.815125 357.227325,438.791748 358.315735,438.533051 
	C362.648529,437.503326 366.980408,437.451355 370.761200,440.118713 
	C373.090088,441.761749 374.092621,444.366943 373.295135,447.205902 
	C372.057983,451.610138 368.522919,452.833038 364.431946,453.096954 
	C363.935486,453.128967 363.443542,453.231232 362.586609,453.455475 
M365.869690,448.633850 
	C367.998016,447.840515 369.272552,446.382965 368.288574,444.137939 
	C367.326843,441.943726 365.133148,442.107666 363.167938,442.394012 
	C361.204407,442.680054 361.236298,444.296783 361.206238,445.787933 
	C361.150513,448.548645 362.877075,448.993042 365.869690,448.633850 
z"/>
<path fill="#000000" opacity="1.000000" stroke="none" 
	d="
M577.785156,458.507874 
	C570.875916,455.540619 568.106201,450.230042 570.213562,444.620789 
	C572.169861,439.413696 578.674316,436.608215 584.372314,438.551605 
	C586.082764,439.135010 588.429443,439.686615 587.787781,442.008392 
	C587.012329,444.814270 584.994812,443.081390 583.326721,442.601349 
	C578.800964,441.299103 575.042175,443.137085 574.308350,447.085999 
	C573.600464,450.895813 575.047913,453.747223 578.960632,454.657471 
	C582.200562,455.411133 584.638733,454.570679 584.468201,450.477295 
	C584.418274,449.279175 584.681885,448.027679 586.296692,448.060181 
	C587.838745,448.091248 588.005249,449.306366 588.223145,450.502045 
	C589.345337,456.658936 585.824707,459.508118 577.785156,458.507874 
z"/>
<path fill="#000000" opacity="1.000000" stroke="none" 
	d="
M680.007568,437.997253 
	C682.455750,438.075409 684.457703,438.070923 686.440552,438.263367 
	C687.514648,438.367584 688.254578,439.092041 688.194214,440.295959 
	C688.133118,441.514221 687.312195,442.048523 686.221130,442.113129 
	C684.560974,442.211487 682.893433,442.179138 681.230652,442.244293 
	C679.844788,442.298645 678.440369,442.490082 678.336304,444.275024 
	C678.233215,446.043152 679.537476,446.305511 680.939880,446.624451 
	C683.021545,447.097809 686.812561,445.303162 686.866394,448.248749 
	C686.932190,451.849121 682.991089,449.763672 680.858948,450.292358 
	C679.439026,450.644470 678.192871,450.918762 678.290649,452.668121 
	C678.388977,454.426086 679.740723,454.709808 681.144775,454.771057 
	C682.807617,454.843597 684.474182,454.831696 686.136475,454.911804 
	C687.214172,454.963745 688.112549,455.393341 688.235291,456.604156 
	C688.367004,457.903870 687.453796,458.431335 686.390076,458.436829 
	C682.902771,458.454742 679.410217,458.448486 675.929077,458.268982 
	C673.931458,458.165924 673.757812,456.501282 673.739441,454.947723 
	C673.696106,451.284027 673.955811,447.595520 673.614502,443.961945 
	C673.179199,439.327118 675.008301,437.433044 680.007568,437.997253 
z"/>
<path fill="#000000" opacity="1.000000" stroke="none" 
	d="
M661.627319,458.428345 
	C656.730591,459.046875 655.284241,456.975128 655.599609,452.711456 
	C655.867737,449.085297 655.719849,445.413116 655.528015,441.773315 
	C655.390747,439.168701 656.548767,438.089050 658.970581,438.064484 
	C661.622864,438.037537 664.278687,437.994934 666.927063,438.102417 
	C668.218933,438.154846 669.819214,438.287872 669.873169,440.062836 
	C669.927917,441.861603 668.385986,442.013336 667.051025,442.115570 
	C665.730103,442.216766 664.398499,442.169373 663.073730,442.231567 
	C661.662170,442.297791 660.318909,442.621002 660.280457,444.369019 
	C660.242065,446.112915 661.528992,446.425354 662.962402,446.610199 
	C664.958069,446.867523 667.320740,445.834808 668.986816,448.280243 
	C667.813477,451.255432 665.176941,450.024170 663.145630,450.284149 
	C661.680298,450.471741 659.899292,450.189301 659.970032,452.422272 
	C660.031677,454.368195 661.507324,454.756958 663.127319,454.803101 
	C663.458862,454.812561 663.809387,454.751099 664.119019,454.837646 
	C666.221130,455.425293 670.279663,453.431915 669.934387,457.116943 
	C669.644775,460.207581 665.863037,458.469757 663.560120,458.530884 
	C663.064941,458.544037 662.567566,458.472626 661.627319,458.428345 
z"/>
<path fill="#000000" opacity="1.000000" stroke="none" 
	d="
M606.436951,457.941589 
	C604.747009,455.105011 607.523010,450.051178 601.377197,450.225372 
	C598.070496,450.319061 595.799927,450.716400 596.141846,454.769104 
	C596.265747,456.237488 596.110107,458.003510 594.019714,458.051178 
	C591.878845,458.100037 591.837952,456.312927 591.810730,454.840851 
	C591.727844,450.353577 591.741333,445.864197 591.747986,441.375702 
	C591.750061,439.980560 591.995972,438.571350 593.723083,438.428131 
	C595.773071,438.258087 596.283325,439.745117 596.176758,441.366577 
	C595.942871,444.924255 596.698914,447.064301 601.074280,446.639191 
	C604.295654,446.326263 606.062622,445.505981 605.693970,441.929169 
	C605.550232,440.535065 605.375000,438.547852 607.569336,438.555237 
	C609.970276,438.563324 609.764893,440.525299 609.716980,442.222809 
	C609.595276,446.535400 609.507996,450.848938 609.382874,455.161407 
	C609.333496,456.863464 609.398865,458.719635 606.436951,457.941589 
z"/>
<path fill="#000000" opacity="1.000000" stroke="none" 
	d="
M557.187134,457.448059 
	C553.562683,459.541992 550.148315,459.247131 546.784363,457.957794 
	C545.473877,457.455475 543.663757,456.822632 544.451721,454.828217 
	C545.150696,453.059265 546.564636,453.943756 547.845520,454.292938 
	C550.363464,454.979248 552.944702,455.668488 555.177612,453.531067 
	C554.744568,450.935852 552.620911,450.926544 551.000977,450.397614 
	C545.166443,448.492615 543.146240,446.093475 544.438110,442.382996 
	C545.713684,438.719452 551.469666,436.829285 555.976624,438.538788 
	C557.289124,439.036621 558.625916,439.560608 558.330200,441.224762 
	C557.984863,443.168640 556.462036,442.545166 555.153564,442.417999 
	C552.945007,442.203400 550.544739,441.279694 548.678162,443.882324 
	C549.771667,446.446869 552.260742,446.369659 554.385803,447.020874 
	C559.830139,448.689331 560.907104,452.315704 557.187134,457.448059 
z"/>
<path fill="#000000" opacity="1.000000" stroke="none" 
	d="
M637.852905,448.983398 
	C637.846313,448.335907 637.844421,448.170013 637.843933,448.004150 
	C637.814209,438.055359 640.356445,436.040039 650.306641,438.088470 
	C651.477905,438.329620 652.748718,438.521088 652.813538,439.984955 
	C652.892822,441.776489 651.465942,442.078918 650.096558,442.164886 
	C648.443176,442.268646 646.780762,442.218658 645.123352,442.271667 
	C643.662537,442.318359 642.455322,442.774628 642.442932,444.511993 
	C642.430908,446.218048 643.606689,446.611938 645.050842,446.888916 
	C647.273315,447.315216 651.209045,445.763123 651.186951,449.032867 
	C651.165222,452.258423 647.221069,450.743683 644.997375,451.105835 
	C642.482666,451.515350 642.360352,453.172089 642.265991,455.078735 
	C642.200623,456.399536 642.191040,457.968292 640.365967,458.029449 
	C638.345032,458.097076 638.036133,456.473022 637.945007,454.936096 
	C637.837097,453.117065 637.880432,451.289093 637.852905,448.983398 
z"/>
<path fill="#000000" opacity="1.000000" stroke="none" 
	d="
M617.095093,443.158997 
	C615.719299,442.591095 614.598877,442.320068 613.474304,442.067627 
	C612.391479,441.824585 611.638184,441.261719 611.670105,440.063080 
	C611.703491,438.809875 612.632446,438.284424 613.663391,438.260620 
	C617.653015,438.168427 621.646423,438.131866 625.635925,438.206909 
	C626.808472,438.228973 628.020081,438.708649 627.981384,440.244995 
	C627.950806,441.459503 627.006104,442.050995 625.975708,442.061554 
	C621.985901,442.102509 622.112793,444.829834 622.160400,447.609406 
	C622.203186,450.106842 622.197266,452.607056 622.129150,455.103760 
	C622.087585,456.626343 621.973999,458.340302 619.854614,458.259735 
	C617.722168,458.178711 617.852722,456.376923 617.783386,454.910889 
	C617.602844,451.096954 617.489075,447.279877 617.095093,443.158997 
z"/>
<path fill="#000000" opacity="1.000000" stroke="none" 
	d="
M519.055359,441.575897 
	C519.094299,446.328308 519.133301,450.642365 519.069092,454.954895 
	C519.046875,456.448029 518.932983,458.182251 516.851318,458.190460 
	C514.646301,458.199127 514.816711,456.359863 514.796875,454.918732 
	C514.735413,450.439911 514.752319,445.959625 514.775208,441.480133 
	C514.782104,440.129242 514.862305,438.629272 516.643860,438.497437 
	C518.385986,438.368530 518.726685,439.798828 519.055359,441.575897 
z"/>
<path fill="#000000" opacity="1.000000" stroke="none" 
	d="
M562.654297,450.891937 
	C562.669983,447.270721 562.654968,444.128815 562.714600,440.988342 
	C562.737732,439.773682 563.068481,438.574524 564.591492,438.572266 
	C566.400696,438.569550 566.712402,440.095398 566.734924,441.367920 
	C566.816589,445.979950 566.785278,450.596924 566.651917,455.207855 
	C566.616699,456.426910 566.617249,458.129364 564.711731,458.110291 
	C562.513123,458.088257 562.764099,456.283478 562.680420,454.843170 
	C562.613403,453.689423 562.658264,452.529175 562.654297,450.891937 
z"/>
<path fill="#000000" opacity="1.000000" stroke="none" 
	d="
M341.416443,441.966125 
	C341.500916,446.680481 341.631989,450.983612 341.686401,455.287750 
	C341.705597,456.805420 341.638000,458.492065 339.450684,458.358185 
	C337.576294,458.243469 337.676514,456.701050 337.671173,455.380493 
	C337.652344,450.741699 337.648682,446.102600 337.682159,441.463928 
	C337.691650,440.152344 337.611755,438.532410 339.414917,438.404480 
	C341.717590,438.241058 341.360748,440.109253 341.416443,441.966125 
z"/>
<path fill="#000000" opacity="1.000000" stroke="none" 
	d="
M346.340820,448.925171 
	C347.411926,448.748474 348.075623,448.588226 348.708557,448.669006 
	C350.343872,448.877808 352.577911,447.848877 353.236786,450.319000 
	C353.634460,451.809845 352.317078,452.442383 351.139038,452.261047 
	C349.039124,451.937897 346.074982,453.818420 345.161377,450.190552 
	C345.086487,449.893341 345.651611,449.434967 346.340820,448.925171 
z"/>
<path fill="#000000" opacity="1.000000" stroke="none" 
	d="
M510.710754,178.466248 
	C505.476868,176.561844 503.485413,172.973465 503.613892,167.896317 
	C503.735992,163.071121 503.546600,158.237946 503.673218,153.412979 
	C503.816833,147.941483 506.877319,144.504288 511.960815,143.797516 
	C516.505798,143.165619 521.177368,145.755447 522.315613,150.525360 
	C524.025208,157.690170 524.120361,165.135956 522.128967,172.221207 
	C520.699524,177.307281 516.416443,179.298752 510.710754,178.466248 
z"/>
</svg>